<svg width="111" height="111" viewBox="0 0 111 111" fill="none" xmlns="http://www.w3.org/2000/svg">
<rect width="110.625" height="110.625" rx="55.3125" fill="#F4F6FA"/>
<path d="M25.0889 53.5312C27.4 49.6695 32.0054 48.4441 35.667 50.498C36.7266 51.0925 37.1042 52.4335 36.5098 53.4932C35.9153 54.5528 34.5743 54.9294 33.5146 54.335C32.0178 53.4953 30.0044 53.8858 28.8643 55.791C27.8191 57.5376 27.992 59.8749 29.2256 61.3896L33.6689 66.8457C35.3706 68.9352 36.513 70.3303 37.4648 71.2314C38.4041 72.1207 38.8018 72.175 38.9658 72.1768C39.072 72.1778 39.4028 72.1537 40.1875 71.4951C41.1181 70.7142 42.5061 70.8351 43.2871 71.7656C44.0682 72.6963 43.9463 74.0842 43.0156 74.8652C41.88 75.8184 40.5473 76.5934 38.9219 76.5771C37.0907 76.5587 35.6598 75.5821 34.4395 74.4268C33.2548 73.3052 31.9336 71.6822 30.3545 69.7432L25.8135 64.168C23.3871 61.1885 23.1126 56.8337 25.0889 53.5312ZM73.5762 36.0371C77.2265 32.757 82.563 33.6913 85.2568 37.6074C87.735 41.2101 87.2941 46.3134 84.042 49.2998C82.1068 51.0769 80.2799 52.7179 78.5312 54.2881C72.9233 59.3237 68.1227 63.6347 63.1543 69.3936L63.0566 69.5068C61.2877 71.5573 59.8255 73.2519 58.5439 74.4141C57.2455 75.5916 55.7417 76.5955 53.8711 76.5771C52.0353 76.559 50.59 75.6008 49.3408 74.4434C48.1315 73.3228 46.7822 71.7007 45.168 69.7607L40.5293 64.1865C38.0469 61.2034 37.7613 56.8284 39.7881 53.5137C42.764 48.6471 49.3303 48.0989 52.9561 52.5459L55.3223 55.4473C60.6626 48.8065 66.3405 42.5389 73.5762 36.0371ZM81.6318 40.1006C80.3139 38.1849 78.0269 37.9534 76.5176 39.3096C69.2628 45.8285 63.6163 52.1058 58.2412 58.8408L58.2197 58.8682C58.0963 59.0229 57.9591 59.1948 57.833 59.3379C57.6964 59.4929 57.481 59.722 57.1826 59.9248C56.0692 60.6814 54.6308 60.6906 53.5078 59.9453C53.0587 59.6472 52.6953 59.1926 52.501 58.9502C52.4793 58.9231 52.4588 58.8992 52.4414 58.8779L49.5459 55.3262C47.8877 53.2925 44.9778 53.4614 43.542 55.8096C42.4815 57.544 42.6537 59.861 43.9111 61.3721L48.4512 66.8281C50.1894 68.917 51.3572 70.3134 52.3311 71.2158C53.2894 72.1038 53.7126 72.1757 53.915 72.1777C54.0832 72.1793 54.5254 72.1188 55.5879 71.1553C56.6447 70.1969 57.9309 68.7118 59.8223 66.5195C64.9901 60.5294 70.0587 55.9798 75.7188 50.8984C77.44 49.3532 79.2161 47.7587 81.0664 46.0596C82.6262 44.6273 82.9283 41.9853 81.6318 40.1006ZM58.1592 36.0527C59.9683 34.3917 62.2847 33.768 64.4932 34.1572C65.6894 34.3683 66.488 35.5088 66.2773 36.7051C66.0665 37.9015 64.9259 38.7009 63.7295 38.4902C62.8648 38.3378 61.9317 38.5613 61.1348 39.293C58.4716 41.7381 56.032 44.1483 53.7461 46.5586C52.91 47.4402 51.5173 47.4767 50.6357 46.6406C49.7544 45.8046 49.7179 44.4128 50.5537 43.5312C52.9086 41.0482 55.4207 38.5671 58.1592 36.0527Z" fill="#0F49B5"/>
</svg>
