<svg width="21" height="20" viewBox="0 0 21 20" fill="none" xmlns="http://www.w3.org/2000/svg">
<g clip-path="url(#clip0_2157_51539)">
<path fill-rule="evenodd" clip-rule="evenodd" d="M8.28194 5.94183C8.02402 5.79445 7.70715 5.7955 7.45021 5.9446C7.19329 6.0937 7.03516 6.3683 7.03516 6.66536V13.332C7.03516 13.6291 7.19329 13.9037 7.45021 14.0528C7.70715 14.2019 8.02402 14.2029 8.28194 14.0555L14.1152 10.7222C14.3749 10.5739 14.5352 10.2978 14.5352 9.9987C14.5352 9.69961 14.3749 9.42353 14.1152 9.2752L8.28194 5.94183ZM12.0222 9.9987L8.70182 11.896V8.10135L12.0222 9.9987Z" fill="#FEFEFE"/>
<path fill-rule="evenodd" clip-rule="evenodd" d="M0.369141 10C0.369141 6.87522 0.369141 5.31283 1.1649 4.21756C1.4219 3.86383 1.73297 3.55276 2.0867 3.29576C3.18197 2.5 4.74437 2.5 7.86914 2.5H12.8691C15.9939 2.5 17.5563 2.5 18.6516 3.29576C19.0053 3.55276 19.3164 3.86383 19.5734 4.21756C20.3691 5.31283 20.3691 6.87522 20.3691 10C20.3691 13.1248 20.3691 14.6872 19.5734 15.7824C19.3164 16.1362 19.0053 16.4472 18.6516 16.7042C17.5563 17.5 15.9939 17.5 12.8691 17.5H7.86914C4.74437 17.5 3.18197 17.5 2.0867 16.7042C1.73297 16.4472 1.4219 16.1362 1.1649 15.7824C0.369141 14.6872 0.369141 13.1248 0.369141 10ZM7.86914 4.16667H12.8691C14.4686 4.16667 15.5344 4.16896 16.3419 4.25644C17.1182 4.34055 17.4558 4.48707 17.672 4.64412C17.8841 4.79832 18.0708 4.98497 18.2251 5.1972C18.3821 5.41337 18.5286 5.75094 18.6127 6.52724C18.7002 7.33472 18.7025 8.4005 18.7025 10C18.7025 11.5995 18.7002 12.6652 18.6127 13.4727C18.5286 14.2491 18.3821 14.5867 18.2251 14.8028C18.0708 15.015 17.8841 15.2017 17.672 15.3559C17.4558 15.5129 17.1182 15.6594 16.3419 15.7436C15.5344 15.8311 14.4686 15.8333 12.8691 15.8333H7.86914C6.26962 15.8333 5.20387 15.8311 4.39638 15.7436C3.62008 15.6594 3.28252 15.5129 3.06634 15.3559C2.85411 15.2017 2.66747 15.015 2.51327 14.8028C2.35621 14.5867 2.20969 14.2491 2.12558 13.4727C2.0381 12.6652 2.03581 11.5995 2.03581 10C2.03581 8.4005 2.0381 7.33472 2.12558 6.52724C2.20969 5.75094 2.35621 5.41337 2.51327 5.1972C2.66747 4.98497 2.85411 4.79832 3.06634 4.64412C3.28252 4.48707 3.62008 4.34055 4.39638 4.25644C5.20387 4.16896 6.26962 4.16667 7.86914 4.16667Z" fill="#FEFEFE"/>
</g>
<defs>
<clipPath id="clip0_2157_51539">
<rect width="20" height="20" fill="white" transform="translate(0.369141)"/>
</clipPath>
</defs>
</svg>
