<svg width="46" height="44" viewBox="0 0 46 44" fill="none" xmlns="http://www.w3.org/2000/svg">
<path fill-rule="evenodd" clip-rule="evenodd" d="M7.09566 19.8316L7.96003 27.2449H2.46253L3.32691 19.8316C3.35456 19.5941 3.55341 19.4171 3.79247 19.4171H6.63C6.86916 19.4172 7.06791 19.5941 7.09566 19.8316ZM2.91375 35.568H7.28906V43.7347H10.2027V29.2135C10.2027 28.9553 9.99216 28.7448 9.73397 28.7448H0.46875C0.210562 28.7448 0 28.9553 0 29.2135V43.2659C0 43.5241 0.210562 43.7347 0.46875 43.7347H2.91375V35.568ZM17.1798 9.35184L16.1175 10.2403H18.0682L17.1798 9.35184ZM15.7116 15.7137H16.4795V12.1153L13.5377 12.1136C12.6745 12.1132 12.263 11.0241 12.9371 10.46L16.4513 7.52081C16.619 7.36331 16.8446 7.26684 17.0928 7.26684H18.5871L30.99 1.29928V0.9375C30.99 0.419719 31.4097 0 31.9275 0L34.3611 0.0010314C34.775 0.000750149 35.1537 0.276938 35.2656 0.695813L35.5188 1.63247L41.6782 6.59728H45.0944C45.3526 6.59728 45.5632 6.80784 45.5632 7.06603V12.316C45.5632 12.5742 45.3526 12.7848 45.0944 12.7848H39.8444C39.5862 12.7848 39.3757 12.5742 39.3757 12.316V12.1152H37.7321V40.3803H39.4478C39.706 40.3803 39.9166 40.5908 39.9166 40.849V43.2659C39.9166 43.5241 39.706 43.7347 39.4478 43.7347H29.2744C29.0162 43.7347 28.8056 43.5241 28.8056 43.2659V40.849C28.8056 40.5908 29.0162 40.3803 29.2744 40.3803H30.9901V12.1153H17.9795V15.7137H18.7474C19.0056 15.7137 19.2161 15.9243 19.2161 16.1825V19.2184C19.2161 19.4766 19.0056 19.6871 18.7474 19.6871H15.7115C15.4533 19.6871 15.2427 19.4766 15.2427 19.2184V16.1825C15.2428 15.9243 15.4534 15.7137 15.7116 15.7137ZM39.3757 7.26694V7.06612C39.3757 6.94791 39.4198 6.83972 39.4925 6.75712C38.3894 5.868 37.2863 4.97878 36.1832 4.08966L37.0421 7.26694H39.3757ZM30.9901 2.95716L22.0327 7.26694H30.9901V2.95716ZM35.7341 40.3804L32.8651 37.5113V40.3804H35.7341ZM35.9086 10.2403L34.9333 9.26494L33.9579 10.2403H35.9086ZM36.9313 9.14194L37.7988 10.0094L38.3917 9.14194H36.9313ZM31.9598 10.1173L32.9352 9.14194H30.9846L31.9598 10.1173ZM20.0662 10.1173L21.0416 9.14194H19.091L20.0662 10.1173ZM22.0643 10.2403H24.015L23.0396 9.26494L22.0643 10.2403ZM26.0131 10.1173L26.9884 9.14194H25.0377L26.0131 10.1173ZM28.0111 10.2403H29.9618L28.9864 9.26494L28.0111 10.2403ZM35.1023 7.26694L33.6447 1.87509H32.8651V7.26694H35.1023ZM34.7966 12.1153H32.8651V14.0468L34.7966 12.1153ZM35.8572 13.1759L32.9882 16.0449L35.8572 18.914V13.1759ZM35.7341 20.912L32.8651 18.0429V23.781L35.7341 20.912ZM35.8572 22.9101L32.9882 25.7791L35.8572 28.6481V22.9101ZM35.7341 30.6462L32.8651 27.7772V33.5153L35.7341 30.6462ZM35.8572 32.6442L32.9882 35.5133L35.8572 38.3823V32.6442ZM10.7849 14.3982C11.1991 14.3982 11.5349 14.734 11.5349 15.1482C11.5349 15.5624 11.1991 15.8982 10.7849 15.8982H6.86569C6.81628 15.8982 6.77316 15.9413 6.77316 15.9907V17.4796C6.77316 17.8938 6.43734 18.2296 6.02316 18.2296C5.60897 18.2296 5.27316 17.8938 5.27316 17.4796V15.9907C5.27316 15.1171 5.99203 14.3982 6.86569 14.3982H10.7849ZM4.92647 17.4796V15.9907C4.92647 14.922 5.79694 14.0516 6.86569 14.0516H10.7849C11.1991 14.0516 11.5349 13.7158 11.5349 13.3016C11.5349 12.8874 11.1991 12.5516 10.7849 12.5516H6.86569C4.97269 12.5516 3.42647 14.0977 3.42647 15.9907V17.4796C3.42647 17.8938 3.76228 18.2296 4.17647 18.2296C4.59066 18.2296 4.92647 17.8938 4.92647 17.4796ZM19.8882 22.5592V43.7347H26.105C26.3632 43.7347 26.5737 43.5241 26.5737 43.2659V20.6799L19.8882 22.5592ZM24.3327 27.8485H22.1291V30.052H24.3326V27.8485H24.3327ZM22.1291 37.2623H24.3326V35.0588H22.1291V37.2623ZM11.7027 30.9476V43.7346H18.3882V29.0685L11.7027 30.9476ZM13.9437 35.0588V37.2623H16.1472V35.0588H13.9437Z" fill="#F6F7F6"/>
</svg>
