<svg width="200" height="200" viewBox="0 0 200 200" fill="none" xmlns="http://www.w3.org/2000/svg">
<path fill-rule="evenodd" clip-rule="evenodd" d="M45.8342 18.3917L18.3926 45.8333H41.6676C42.7717 45.8333 43.8342 45.3958 44.6134 44.6125C45.3967 43.8333 45.8342 42.7708 45.8342 41.6667V18.3917Z" fill="#91C954"/>
<path fill-rule="evenodd" clip-rule="evenodd" d="M150 112.5C170.696 112.5 187.5 129.304 187.5 150C187.5 170.696 170.696 187.5 150 187.5C129.304 187.5 112.5 170.696 112.5 150C112.5 129.304 129.304 112.5 150 112.5ZM129.375 152.946L141.162 164.733C142.787 166.358 145.425 166.358 147.054 164.733L170.625 141.162C172.25 139.533 172.25 136.896 170.625 135.267C168.996 133.642 166.358 133.642 164.733 135.267L144.108 155.892L135.267 147.054C133.642 145.429 131.004 145.429 129.375 147.054C127.75 148.679 127.75 151.321 129.375 152.946Z" fill="#91C954"/>
<path fill-rule="evenodd" clip-rule="evenodd" d="M154.167 104.354V16.6667C154.167 14.3667 152.3 12.5 150 12.5H58.3333C56.0333 12.5 54.1667 14.3667 54.1667 16.6667V41.6667C54.1667 44.9833 52.85 48.1625 50.5042 50.5042C48.1625 52.85 44.9833 54.1667 41.6667 54.1667H16.6667C15.5625 54.1667 14.5 54.6042 13.7208 55.3875C12.9375 56.1667 12.5 57.2292 12.5 58.3333V183.333C12.5 185.633 14.3667 187.5 16.6667 187.5H123.654C111.871 179.204 104.167 165.496 104.167 150C104.167 124.704 124.704 104.167 150 104.167C151.404 104.167 152.792 104.229 154.167 104.354ZM41.6667 162.5H91.6667C93.9667 162.5 95.8333 160.633 95.8333 158.333C95.8333 156.033 93.9667 154.167 91.6667 154.167H41.6667C39.3667 154.167 37.5 156.033 37.5 158.333C37.5 160.633 39.3667 162.5 41.6667 162.5ZM41.6667 137.5H91.6667C93.9667 137.5 95.8333 135.633 95.8333 133.333C95.8333 131.033 93.9667 129.167 91.6667 129.167H41.6667C39.3667 129.167 37.5 131.033 37.5 133.333C37.5 135.633 39.3667 137.5 41.6667 137.5ZM41.6667 112.5H108.333C110.633 112.5 112.5 110.633 112.5 108.333C112.5 106.033 110.633 104.167 108.333 104.167H41.6667C39.3667 104.167 37.5 106.033 37.5 108.333C37.5 110.633 39.3667 112.5 41.6667 112.5ZM41.6667 87.5H125C127.3 87.5 129.167 85.6333 129.167 83.3333C129.167 81.0333 127.3 79.1667 125 79.1667H41.6667C39.3667 79.1667 37.5 81.0333 37.5 83.3333C37.5 85.6333 39.3667 87.5 41.6667 87.5Z" fill="#91C954"/>
</svg>
