<svg width="46" height="48" viewBox="0 0 46 48" fill="none" xmlns="http://www.w3.org/2000/svg">
<path d="M44.5302 27.2336L43.0345 26.1281C40.2842 24.0951 40.2842 20.9859 43.0345 18.953L44.5301 17.8475C45.0494 17.4637 45.2404 16.7758 44.9933 16.1794L42.9198 11.1756C42.6727 10.5793 42.0507 10.2274 41.4122 10.3234L39.5725 10.5988C36.1893 11.1046 33.9901 8.90703 34.4969 5.52528L34.7724 3.68647C34.8682 3.04803 34.5165 2.42656 33.9199 2.17953L28.9141 0.107094C28.3175 -0.139844 27.6292 0.0510315 27.2452 0.570032L26.1394 2.06497C24.1057 4.81419 20.9949 4.81419 18.9613 2.06497L17.8552 0.570032C17.4712 0.050844 16.7829 -0.139844 16.1864 0.107094L11.1805 2.17972C10.5839 2.42684 10.2322 3.04831 10.328 3.68666L10.6035 5.52547C11.1098 8.9045 8.91366 11.1056 5.52778 10.599L3.68822 10.3236C3.0494 10.2279 2.42784 10.5793 2.18062 11.1758L0.107155 16.1796C-0.13997 16.776 0.0509984 17.4639 0.57028 17.8477L2.06587 18.9531C4.81631 20.986 4.81631 24.0953 2.06587 26.1283L0.57028 27.2337C0.0509984 27.6174 -0.13997 28.3054 0.107155 28.9018L2.18062 33.9056C2.42784 34.502 3.04959 34.8538 3.68822 34.7578L5.52778 34.4824C8.91 33.9747 11.1101 36.1749 10.6035 39.5559L10.328 41.3947C10.2322 42.0331 10.5839 42.6546 11.1805 42.9016L15.2257 44.5765L16.2262 33.5446C7.62272 28.5797 7.80647 15.9618 16.7433 11.3417C17.6783 10.8585 18.7956 11.538 18.7956 12.5903V21.7932L22.5502 23.845L26.3049 21.7929V12.59C26.3049 11.5378 27.4223 10.8581 28.3572 11.3414C37.2817 15.9552 37.4849 28.5634 28.8853 33.5382L29.8764 44.5755L33.92 42.9013C34.5166 42.6542 34.8683 42.0327 34.7725 41.3944L34.497 39.5556C33.9905 36.176 36.1867 33.9764 39.5727 34.482L41.4123 34.7575C42.0506 34.8534 42.6727 34.5016 42.9199 33.9053L44.9933 28.9015C45.2404 28.3053 45.0494 27.6174 44.5302 27.2336Z" fill="#F6F7F6"/>
<path d="M26 32.8585C25.9475 32.274 26.2638 31.7184 26.7935 31.4649C33.1165 28.4398 34.3463 19.9162 29.117 15.2498V22.6264C29.117 23.1403 28.8365 23.6132 28.3854 23.8598L23.2245 26.6804C22.8041 26.9101 22.2956 26.9101 21.8751 26.6804L16.7142 23.8598C16.263 23.6132 15.9825 23.1403 15.9825 22.6264V15.2498C10.7491 19.9198 11.9849 28.4499 18.3165 31.4698C18.8475 31.7231 19.1645 32.2798 19.1115 32.8654L17.8368 46.9786C17.7873 47.5272 18.2195 48 18.7706 48H26.3343C26.8852 48 27.3173 47.5275 27.2681 46.9792L26 32.8585Z" fill="#F6F7F6"/>
</svg>
