<svg width="48" height="48" viewBox="0 0 48 48" fill="none" xmlns="http://www.w3.org/2000/svg">
<path d="M5.01562 16.4375H23.808C24.6344 14.657 25.6422 12.8094 26.6702 11.0625H5.01562V16.4375Z" fill="#F6F7F6"/>
<path d="M5.01562 23.1562V28.5312H23.0823C22.2452 26.8633 21.8103 25.0225 21.8125 23.1562H5.01562Z" fill="#F6F7F6"/>
<path d="M5.01562 33.9062H28.3834C26.5588 32.9676 25.0028 31.5804 23.8617 29.875H5.01562C4.48129 29.8758 3.96906 30.0884 3.59123 30.4662C3.21339 30.8441 3.00078 31.3563 3 31.8906C3.00156 32.4247 3.21442 32.9365 3.59209 33.3142C3.96975 33.6918 4.48153 33.9047 5.01562 33.9062Z" fill="#F6F7F6"/>
<path d="M34.5781 41.9688H5.01562C4.48105 41.9688 3.96837 42.1811 3.59036 42.5591C3.21236 42.9371 3 43.4498 3 43.9844C3 44.519 3.21236 45.0316 3.59036 45.4096C3.96837 45.7876 4.48105 46 5.01562 46H34.5781C35.1127 46 35.6254 45.7876 36.0034 45.4096C36.3814 45.0316 36.5938 44.519 36.5938 43.9844C36.5938 43.4498 36.3814 42.9371 36.0034 42.5591C35.6254 42.1811 35.1127 41.9688 34.5781 41.9688Z" fill="#F6F7F6"/>
<path d="M5.01562 40.6233H34.5781V35.2281C34.4169 35.2416 34.2489 35.2416 34.0809 35.2416C34.0229 35.2473 33.9646 35.2496 33.9062 35.2483H5.01562V40.6233Z" fill="#F6F7F6"/>
<path d="M34.4505 3.27828C34.3853 3.1966 34.3025 3.13066 34.2084 3.08533C34.1142 3.04001 34.011 3.01648 33.9065 3.01648C33.802 3.01648 33.6988 3.04001 33.6047 3.08533C33.5105 3.13066 33.4278 3.1966 33.3626 3.27828C32.945 3.85434 23.1562 17.4388 23.1562 23.157C23.1563 26.0081 24.2888 28.7424 26.3049 30.7584C28.3209 32.7744 31.0552 33.907 33.9062 33.907C36.7573 33.907 39.4916 32.7744 41.5076 30.7584C43.5237 28.7424 44.6562 26.0081 44.6562 23.157C44.6562 17.4388 34.8675 3.85434 34.4505 3.27828ZM33.9062 31.2195C31.7687 31.2171 29.7193 30.367 28.2078 28.8555C26.6963 27.3439 25.8461 25.2946 25.8438 23.157C25.8438 22.9788 25.9145 22.8079 26.0405 22.6819C26.1665 22.5559 26.3374 22.4851 26.5156 22.4851C26.6938 22.4851 26.8647 22.5559 26.9907 22.6819C27.1167 22.8079 27.1875 22.9788 27.1875 23.157C27.1896 24.9383 27.8981 26.646 29.1577 27.9056C30.4172 29.1651 32.125 29.8736 33.9062 29.8757C34.0844 29.8757 34.2553 29.9465 34.3813 30.0725C34.5073 30.1985 34.5781 30.3694 34.5781 30.5476C34.5781 30.7258 34.5073 30.8967 34.3813 31.0227C34.2553 31.1487 34.0844 31.2195 33.9062 31.2195Z" fill="#F6F7F6"/>
<path d="M5.01562 21.8125H21.9402C22.2164 20.426 22.6445 19.0741 23.2167 17.7812H5.01562C4.48129 17.782 3.96906 17.9946 3.59123 18.3725C3.21339 18.7503 3.00078 19.2625 3 19.7969C3.00156 20.331 3.21442 20.8427 3.59209 21.2204C3.96975 21.5981 4.48153 21.8109 5.01562 21.8125Z" fill="#F6F7F6"/>
<path d="M5.01562 9.71875H27.4764C28.3902 8.22047 29.2838 6.84313 30.0564 5.6875H13.0781V4.34375H14.4219C14.6001 4.34375 14.771 4.27296 14.897 4.14696C15.023 4.02096 15.0938 3.85007 15.0938 3.67188C15.0938 3.49368 15.023 3.32279 14.897 3.19679C14.771 3.07079 14.6001 3 14.4219 3H6.35938C6.18118 3 6.01029 3.07079 5.88429 3.19679C5.75829 3.32279 5.6875 3.49368 5.6875 3.67188C5.6875 3.85007 5.75829 4.02096 5.88429 4.14696C6.01029 4.27296 6.18118 4.34375 6.35938 4.34375H7.70312V5.6875H5.01562C4.48129 5.68828 3.96906 5.90089 3.59123 6.27873C3.21339 6.65656 3.00078 7.16879 3 7.70312C3.00156 8.23722 3.21442 8.749 3.59209 9.12666C3.96975 9.50433 4.48153 9.71719 5.01562 9.71875ZM9.04688 4.34375H11.7344V5.6875H9.04688V4.34375Z" fill="#F6F7F6"/>
</svg>
