<svg width="48" height="48" viewBox="0 0 48 48" fill="none" xmlns="http://www.w3.org/2000/svg">
<path d="M23.5497 4C12.7713 4 4.00098 12.7703 4.00098 23.5488C4.00098 34.3443 12.7713 43.1147 23.5497 43.1147C34.3282 43.1147 43.0985 34.3443 43.0985 23.5488C43.0985 12.7703 34.3282 4 23.5497 4ZM17.7486 23.5488C17.7486 25.042 16.53 26.2605 15.054 26.2605C13.5608 26.2605 12.3422 25.042 12.3422 23.5488C12.3422 22.0556 13.5608 20.8542 15.054 20.8542C16.53 20.8542 17.7486 22.0556 17.7486 23.5488ZM23.5497 20.8542C25.0429 20.8542 26.2443 22.0556 26.2443 23.5488C26.2443 25.042 25.0429 26.2605 23.5497 26.2605C22.0565 26.2605 20.838 25.042 20.838 23.5488C20.838 22.0556 22.0565 20.8542 23.5497 20.8542ZM32.0455 26.2605C30.5523 26.2605 29.3509 25.042 29.3509 23.5488C29.3509 22.0556 30.5523 20.8542 32.0455 20.8542C33.5387 20.8542 34.7401 22.0556 34.7401 23.5488C34.7401 25.042 33.5387 26.2605 32.0455 26.2605Z" fill="#F6F7F6"/>
</svg>
