<svg width="42" height="42" viewBox="0 0 42 42" fill="none" xmlns="http://www.w3.org/2000/svg">
<path d="M39.8587 20.5481L34.8497 19.1663V22.5338H39.8587V20.5481ZM22.0828 5.76188H19.1653C18.8466 5.76188 18.5831 6.02531 18.5831 6.34125V7.35656C19.9144 6.99469 21.3309 6.99469 22.6622 7.35656V6.34125C22.6622 6.02437 22.4025 5.76188 22.0828 5.76188ZM22.9866 8.44312C22.9762 8.44031 22.9631 8.43469 22.9519 8.43C22.2581 8.16187 21.3281 8.01281 20.5416 8.02312C17.2838 8.06812 14.5275 10.3828 13.9163 13.5534H27.3309C26.8744 11.1881 25.2056 9.26156 22.9866 8.44312ZM25.8909 0H21.0919V2.37H25.8909V0ZM5.62313 41.1675V37.155C5.62313 36.18 5.90719 35.2706 6.39937 34.5028V23.4684H0V41.1675H5.62313ZM34.8497 34.5019C35.3409 35.2697 35.6259 36.1791 35.6259 37.1541V41.1666H41.2491V23.4684H34.8497V34.5019ZM24.1987 20.505H17.0475V22.8413H24.1987V20.505ZM16.5797 19.5675H24.6694C24.9272 19.5675 25.1372 19.7775 25.1372 20.0353V23.3119C25.1372 23.5697 24.9272 23.7797 24.6694 23.7797H16.5797C16.3191 23.7797 16.1091 23.5697 16.1091 23.3119V20.0353C16.1091 19.7775 16.3191 19.5675 16.5797 19.5675ZM8.70563 19.2141C8.70563 18.5972 9.64406 18.5972 9.64406 19.2141V20.8406H11.0634C11.6803 20.8406 11.6803 21.7791 11.0634 21.7791H9.17625C8.91562 21.7791 8.70563 21.5691 8.70563 21.3113V19.2141ZM29.7159 19.2141C29.7159 18.5972 30.6544 18.5972 30.6544 19.2141V20.8406H32.0737C32.6906 20.8406 32.6906 21.7791 32.0737 21.7791H30.1866C29.9259 21.7791 29.7159 21.5691 29.7159 21.3113V19.2141ZM6.39844 19.1663L1.27781 20.5509V22.5338H6.39844V19.1663ZM13.8047 27.375C12.7181 26.2856 10.9528 26.2856 9.86625 27.375C8.77687 28.4616 8.77687 30.2269 9.86625 31.3134C10.9528 32.4 12.7181 32.4 13.8047 31.3134C14.8912 30.2269 14.8922 28.4616 13.8047 27.375ZM22.5938 27.375C21.5072 26.2856 19.7419 26.2856 18.6553 27.375C17.5659 28.4616 17.5659 30.2269 18.6553 31.3134C19.7419 32.4 21.5072 32.4 22.5938 31.3134C23.6803 30.2269 23.6803 28.4616 22.5938 27.375ZM31.3819 27.375C30.2953 26.2856 28.53 26.2856 27.4434 27.375C26.3541 28.4616 26.3541 30.2269 27.4434 31.3134C28.53 32.4 30.2953 32.4 31.3819 31.3134C32.4684 30.2269 32.4684 28.4616 31.3819 27.375ZM28.8094 14.4919H12.4397V16.3678H28.8094V14.4919ZM12.9019 17.3053H11.9719C11.8659 17.3053 11.7703 17.2706 11.6925 17.2125H7.33406V33.4153C7.96687 32.8706 8.73469 32.4797 9.57937 32.3044C7.78781 30.9384 7.60781 28.3078 9.20156 26.7103C10.1587 25.7559 11.5725 25.3791 12.9009 25.7747V17.3053H12.9019ZM27.4087 17.3053H13.8394V26.205C16.0134 27.5972 16.1512 30.7331 14.0887 32.3063C14.8781 32.4684 15.6084 32.8191 16.2281 33.3272C16.8366 32.8275 17.5678 32.4684 18.3675 32.3044C16.5759 30.9384 16.3959 28.3078 17.9897 26.7103C19.4438 25.2563 21.8006 25.2563 23.2537 26.7103C24.8513 28.3078 24.6703 30.9384 22.8787 32.3044C23.6756 32.4694 24.4069 32.8275 25.0181 33.3272C25.635 32.82 26.3681 32.4684 27.1575 32.3063C25.095 30.7331 25.2309 27.5972 27.4069 26.205V17.3053H27.4087ZM29.5556 17.2125C29.4788 17.2706 29.3803 17.3053 29.2762 17.3053H28.3434V25.7747C30.7219 25.065 33.135 26.8453 33.135 29.3438C33.135 30.54 32.5688 31.6181 31.6678 32.3044C32.5125 32.4797 33.2812 32.8706 33.9103 33.4153V17.2125H29.5556ZM9.09844 37.6566C9.09844 37.0397 10.0341 37.0397 10.0341 37.6566V41.1675H14.4113V37.155C14.4113 35.9541 14.8444 34.8506 15.5616 33.99C14.8575 33.4425 14.0016 33.1425 13.0978 33.1425H10.5703C8.36438 33.1425 6.55781 34.95 6.55781 37.155V41.1675H9.09844V37.6566ZM31.4559 37.6566C31.4559 37.0397 32.3944 37.0397 32.3944 37.6566V41.1675H34.6875V37.155C34.6875 34.9491 32.8828 33.1425 30.6778 33.1425H28.1475C27.2437 33.1425 26.3906 33.4425 25.6866 33.99C26.4037 34.8506 26.8369 35.9541 26.8369 37.155V41.1675H31.4559V37.6566ZM22.8113 37.6566C22.8113 37.0397 23.7497 37.0397 23.7497 37.6566V41.1675H25.8994V37.155C25.8994 34.9491 24.0919 33.1425 21.8869 33.1425H19.3594C17.1534 33.1425 15.3469 34.95 15.3469 37.155V41.1675H17.4994V37.6566C17.4994 37.0397 18.4378 37.0397 18.4378 37.6566V41.1675H22.8122V37.6566H22.8113Z" fill="#F6F7F6"/>
</svg>
