<svg width="48" height="48" viewBox="0 0 48 48" fill="none" xmlns="http://www.w3.org/2000/svg">
<path d="M24.675 21.5205L36.4044 14.7446V28.2938L30.2023 31.873L24.675 35.0642V21.5205ZM35.7323 13.5779L30.2023 10.3867L29.8034 10.1544C29.5485 10.6893 29.242 11.1979 28.888 11.6731L24.0001 18.2356L19.1149 11.6731C18.7607 11.1984 18.4532 10.6906 18.1968 10.1567L17.7979 10.3863L12.2678 13.5776L24 20.3538L35.7323 13.5779ZM20.1968 10.8675C18.4317 8.49321 18.1038 5.35108 20.1968 3.25821C21.2082 2.25366 22.5758 1.68988 24.0014 1.68988C25.4269 1.68988 26.7945 2.25366 27.806 3.25821C29.9622 5.41671 29.5 8.59155 27.806 10.8675L23.9997 15.9769L20.1968 10.8675ZM20.7787 6.92815H20.7814C20.7815 7.7817 21.1206 8.60025 21.7242 9.20375C22.3278 9.80725 23.1464 10.1463 24 10.1462V10.1489C24.6364 10.1484 25.2584 9.95924 25.7873 9.60534C26.3162 9.25144 26.7284 8.74869 26.9716 8.16062C27.2149 7.57255 27.2784 6.92556 27.1541 6.30142C27.0298 5.67728 26.7232 5.104 26.2732 4.65403C25.8231 4.20407 25.2498 3.89761 24.6256 3.7734C24.0015 3.64918 23.3545 3.71278 22.7664 3.95616C22.1784 4.19954 21.6757 4.61177 21.3219 5.14076C20.9681 5.66974 20.7791 6.29174 20.7787 6.92815ZM24 8.80193V8.79921C24.3698 8.79891 24.7312 8.689 25.0385 8.48337C25.3458 8.27774 25.5853 7.98562 25.7266 7.64393C25.868 7.30223 25.9048 6.92631 25.8326 6.56367C25.7603 6.20102 25.5822 5.86794 25.3207 5.60651C25.0592 5.34508 24.726 5.16704 24.3634 5.0949C24.0007 5.02275 23.6248 5.05974 23.2831 5.20119C22.9415 5.34263 22.6494 5.58219 22.4439 5.88957C22.2384 6.19696 22.1286 6.55837 22.1284 6.92815H22.1257C22.1289 7.42415 22.3271 7.89897 22.6776 8.25002C22.8507 8.42464 23.0567 8.56329 23.2837 8.65801C23.5106 8.75272 23.7541 8.80164 24 8.80193ZM23.325 35.0642V21.5205L11.5957 14.7446V28.2938L17.7978 31.873L23.325 35.0642ZM28.4672 42.4688C28.5328 42.9164 28.5328 43.3712 28.4672 43.8188H40.3688C40.2995 43.3714 40.2995 42.9161 40.3688 42.4688H28.4672ZM3.16669 39.9768C2.54039 39.9768 1.92815 40.1625 1.4074 40.5105C0.886648 40.8584 0.480765 41.353 0.241078 41.9316C0.00139073 42.5102 -0.0613367 43.1469 0.0608279 43.7612C0.182992 44.3754 0.484562 44.9397 0.927403 45.3826C1.37024 45.8255 1.93447 46.1271 2.54873 46.2493C3.16299 46.3715 3.79969 46.3088 4.37833 46.0692C4.95697 45.8296 5.45156 45.4237 5.79956 44.903C6.14755 44.3823 6.33332 43.7701 6.33338 43.1438C6.33338 42.3039 5.99975 41.4984 5.40589 40.9045C4.81203 40.3106 4.00657 39.9769 3.16669 39.9768ZM44.8333 39.9768C44.207 39.9768 43.5948 40.1625 43.074 40.5105C42.5533 40.8584 42.1474 41.353 41.9077 41.9316C41.668 42.5102 41.6053 43.1469 41.7275 43.7612C41.8496 44.3754 42.1512 44.9397 42.594 45.3826C43.0369 45.8255 43.6011 46.1271 44.2154 46.2493C44.8296 46.3715 45.4663 46.3088 46.045 46.0692C46.6236 45.8296 47.1182 45.4237 47.4662 44.903C47.8142 44.3823 47.9999 43.7701 48 43.1438C48 42.3039 47.6664 41.4984 47.0725 40.9045C46.4787 40.3106 45.6732 39.9769 44.8333 39.9768ZM7.63388 42.4688C7.69953 42.9164 7.69953 43.3712 7.63388 43.8188H19.5355C19.4663 43.3714 19.4663 42.9161 19.5355 42.4688H7.63388ZM24 39.9768C23.3737 39.9768 22.7615 40.1625 22.2407 40.5105C21.72 40.8584 21.3141 41.353 21.0744 41.9316C20.8347 42.5102 20.772 43.1469 20.8941 43.7612C21.0163 44.3754 21.3179 44.9397 21.7607 45.3826C22.2036 45.8255 22.7678 46.1271 23.382 46.2493C23.9963 46.3715 24.633 46.3088 25.2116 46.0692C25.7903 45.8296 26.2849 45.4237 26.6329 44.903C26.9809 44.3823 27.1666 43.7701 27.1667 43.1438C27.1667 42.3039 26.8331 41.4984 26.2392 40.9045C25.6453 40.3106 24.8399 39.9769 24 39.9768Z" fill="#F6F7F6"/>
</svg>
