<svg width="48" height="33" viewBox="0 0 48 33" fill="none" xmlns="http://www.w3.org/2000/svg">
<path d="M8.23415 25.5063C6.18534 25.5063 4.51855 27.1731 4.51855 29.2219C4.72265 34.1513 11.7464 34.1498 11.9498 29.2219C11.9498 27.1731 10.283 25.5063 8.23415 25.5063Z" fill="#F6F7F6"/>
<path d="M30.325 0H1.40625C0.629625 0 0 0.629625 0 1.40625V18.0751H31.7313V1.40625C31.7313 0.629625 31.1017 0 30.325 0Z" fill="#F6F7F6"/>
<path d="M0 28.5189C0 29.2955 0.629625 29.9251 1.40625 29.9251H1.74469C1.09388 23.3903 9.31847 20.1026 13.3563 25.1817C17.3977 20.1006 25.6188 23.3936 24.9679 29.9251H30.325C31.1017 29.9251 31.7313 29.2955 31.7313 28.5189V20.8877H0V28.5189Z" fill="#F6F7F6"/>
<path d="M18.4783 25.5063C16.4295 25.5063 14.7627 27.1731 14.7627 29.2219C14.9668 34.1513 21.9905 34.1498 22.194 29.2219C22.1939 27.1731 20.527 25.5063 18.4783 25.5063Z" fill="#F6F7F6"/>
<path d="M38.2595 25.5063C36.2107 25.5063 34.5439 27.1731 34.5439 29.2219C34.748 34.1513 41.7718 34.1498 41.9752 29.2219C41.9751 27.1731 40.3083 25.5063 38.2595 25.5063Z" fill="#F6F7F6"/>
<path d="M37.7565 19.4813V9.0376H35.9502C35.1736 9.0376 34.5439 9.66722 34.5439 10.4438V23.8588C39.0632 20.6782 45.3713 24.3985 44.7493 29.9251H46.594C47.3706 29.9251 48.0003 29.2955 48.0003 28.5188V20.8877H39.1627C38.3861 20.8876 37.7565 20.258 37.7565 19.4813Z" fill="#F6F7F6"/>
<path d="M40.5684 9.0376V18.0751H47.9996V16.4674C47.9996 12.3706 44.6666 9.0376 40.5684 9.0376Z" fill="#F6F7F6"/>
</svg>
