<svg width="24" height="24" viewBox="0 0 24 24" fill="none" xmlns="http://www.w3.org/2000/svg">
<path d="M8.55723 17.3964C8.7186 17.2745 9.20035 16.9106 9.47806 16.6939C10.0343 16.2598 10.7734 15.6667 11.5103 15.0269C12.2509 14.3838 12.9722 13.7083 13.5024 13.1082C13.7683 12.8073 13.9703 12.543 14.1018 12.3248C14.2255 12.1197 14.2512 11.9985 14.2512 11.9985C14.2512 11.9985 14.2255 11.8809 14.1018 11.6757C13.9703 11.4576 13.7683 11.1933 13.5024 10.8924C12.9722 10.2923 12.2509 9.61674 11.5102 8.9737C10.7733 8.3339 10.0342 7.74079 9.47802 7.30671C9.20031 7.08998 8.71925 6.72658 8.55787 6.6047C8.22435 6.35906 8.15241 5.88906 8.39805 5.55554C8.64368 5.22201 9.11318 5.15076 9.4467 5.3964L9.44924 5.39832C9.6185 5.52616 10.1175 5.90306 10.4009 6.12419C10.9696 6.56806 11.7306 7.17849 12.4937 7.84105C13.253 8.50037 14.0317 9.22604 14.6265 9.89916C14.9231 10.2349 15.1898 10.5751 15.3864 10.9013C15.5707 11.2069 15.7519 11.5938 15.7519 12.0003C15.7519 12.4068 15.5707 12.7937 15.3864 13.0993C15.1898 13.4254 14.9231 13.7657 14.6265 14.1014C14.0317 14.7745 13.253 15.5002 12.4937 16.1595C11.7306 16.8221 10.9697 17.4325 10.4009 17.8764C10.1174 18.0977 9.61832 18.4746 9.44941 18.6022L9.44723 18.6038C9.11371 18.8495 8.64373 18.7786 8.3981 18.4451C8.15247 18.1115 8.22374 17.642 8.55723 17.3964Z" fill="#050607"/>
</svg>
