<svg width="133" height="32" viewBox="0 0 133 32" fill="none" xmlns="http://www.w3.org/2000/svg">
<path d="M37.3586 17.2051H5.74156V14.7017H37.3593C38.034 14.7017 38.593 15.2431 38.5942 15.9171C38.5942 15.9215 38.5942 15.9253 38.5942 15.9297C38.5942 15.9497 38.5942 15.9703 38.5942 15.9903C38.5886 16.6643 38.0334 17.2051 37.3586 17.2051ZM125.054 17.2051H73.7659V14.7017H125.054C125.746 14.7017 126.307 15.2619 126.307 15.9534C126.307 16.6449 125.746 17.2051 125.054 17.2051ZM131.941 14.7017C131.726 13.4875 131.199 12.3815 130.445 11.4699C129.442 10.2557 128.038 9.38535 126.435 9.05961H71.3461C69.5121 9.05961 68.0243 10.5445 68.0243 12.3777V17.2039H42.6258C42.7021 16.7918 42.7416 16.3654 42.7416 15.9297C42.7416 15.4939 42.7052 15.1 42.6345 14.7017C42.4198 13.4875 41.8928 12.3815 41.1392 11.4699C40.8532 11.1229 40.5346 10.8059 40.1884 10.5201C39.319 9.80363 38.2737 9.29219 37.1283 9.05961H5.74156V2.86731C5.74156 1.2836 4.45655 0 2.87109 0C2.07868 0 1.36075 0.321372 0.84061 0.839689C0.321722 1.35926 0 2.07514 0 2.86794V22.9404H125.031C125.466 22.9404 125.893 22.901 126.307 22.8247C129.159 22.3014 131.408 20.0549 131.933 17.2045C132.009 16.7925 132.048 16.3661 132.048 15.9303C132.048 15.4945 132.012 15.1006 131.941 14.7023L131.941 14.7017Z" fill="white"/>
<path d="M62.7163 9.11029H58.1915C57.8565 9.11029 57.585 9.38154 57.585 9.71614V22.3339C57.585 22.6685 57.8565 22.9398 58.1915 22.9398H62.7163C63.0512 22.9398 63.3228 22.6685 63.3228 22.3339V9.71614C63.3228 9.38154 63.0512 9.11029 62.7163 9.11029Z" fill="white"/>
<path d="M78.3463 6.98383C80.277 6.98383 81.8421 5.42045 81.8421 3.49192C81.8421 1.56338 80.277 0 78.3463 0C76.4157 0 74.8506 1.56338 74.8506 3.49192C74.8506 5.42045 76.4157 6.98383 78.3463 6.98383Z" fill="white"/>
<path d="M49.236 32C51.1667 32 52.7318 30.4366 52.7318 28.5081C52.7318 26.5796 51.1667 25.0162 49.236 25.0162C47.3053 25.0162 45.7402 26.5796 45.7402 28.5081C45.7402 30.4366 47.3053 32 49.236 32Z" fill="white"/>
</svg>
