<svg width="80" height="80" viewBox="0 0 80 80" fill="none" xmlns="http://www.w3.org/2000/svg">
<g clip-path="url(#clip0_3322_2429)">
<path fill-rule="evenodd" clip-rule="evenodd" d="M60.0047 37.9703C59.7656 37.9703 59.525 37.8781 59.3422 37.6953C55.6109 33.9641 51.2734 25.8625 51.2734 21.0094C51.2734 15.3453 55.6672 12.3828 60.0047 12.3828C64.3438 12.3828 68.7359 15.3453 68.7359 21.0094C68.7359 25.8625 64.4 33.9641 60.6688 37.6953C60.4844 37.8781 60.2453 37.9703 60.0047 37.9703ZM60.0047 27.275C57.1031 27.275 54.7422 24.9141 54.7422 22.0109C54.7422 19.1094 57.1031 16.7484 60.0047 16.7484C62.9078 16.7484 65.2688 19.1094 65.2688 22.0109C65.2688 24.9141 62.9078 27.275 60.0047 27.275ZM60.0047 18.6234C58.1375 18.6234 56.6172 20.1422 56.6172 22.0109C56.6172 23.8797 58.1375 25.4 60.0047 25.4C61.8734 25.4 63.3938 23.8797 63.3938 22.0109C63.3938 20.1422 61.8734 18.6234 60.0047 18.6234Z" fill="#050607"/>
<path fill-rule="evenodd" clip-rule="evenodd" d="M65.475 61.9266C65.4312 61.9266 65.3875 61.9234 65.3453 61.9172C65.2172 61.9 65.0906 61.8547 64.975 61.7828C64.9703 61.7797 64.9672 61.7766 64.9625 61.7734L50.4844 52.4234L55.4219 42.2391C56.7531 42.7719 58.3156 43.0766 60.0031 43.0766C64.9922 43.0766 68.9 40.4219 68.9 37.0328C68.9 35.45 68.0375 33.9922 66.5359 32.9016C67.8937 30.5813 69.0766 28.0328 69.8125 25.625L79.5531 31.9172C79.6328 31.9656 79.7016 32.025 79.7609 32.0922C79.8547 32.1984 79.9203 32.3234 79.9578 32.4547C79.9953 32.5891 80.0047 32.7313 79.9797 32.8719C79.9641 32.9594 79.9359 33.0453 79.8953 33.1281L66.3203 61.3953C66.2484 61.5469 66.1406 61.6688 66.0109 61.7594C65.9422 61.8063 65.8688 61.8453 65.7891 61.8719C65.6891 61.9078 65.5828 61.9266 65.475 61.9266ZM53.7578 41.3734L47.7688 53.7297L35.4922 61.6594L50.8547 29.9969L51.6781 29.4656C52.2156 30.6359 52.8234 31.7953 53.4719 32.9016C51.9703 33.9922 51.1063 35.45 51.1063 37.0328C51.1063 38.7531 52.1141 40.2828 53.7578 41.3734ZM54.4625 34.5078C55.6219 36.2891 56.8547 37.8609 58.0156 39.0219C58.5438 39.55 59.2578 39.8453 60.0031 39.8453C60.75 39.8453 61.4641 39.55 61.9922 39.0219C63.1531 37.8609 64.3844 36.2891 65.5453 34.5078C66.4828 35.2297 67.025 36.1203 67.025 37.0328C67.025 39.2922 63.8094 41.2016 60.0031 41.2016C56.1969 41.2016 52.9813 39.2922 52.9813 37.0328C52.9813 36.1203 53.525 35.2297 54.4625 34.5078ZM33.575 61.3141L28.5328 58.0578C28.8812 56.7703 29.0688 55.4172 29.0688 54.0219C29.0688 49.6937 27.2812 45.775 24.4078 42.9656L34.2875 22.4938L48.0875 31.4047L33.575 61.3141ZM13.8594 38.5562L16.8609 32.3047C16.9359 32.1484 17.0516 32.0172 17.1969 31.9234L32.3906 22.1094L22.9375 41.6969C20.4047 39.7734 17.2641 38.6125 13.8594 38.5562Z" fill="#050607"/>
<path fill-rule="evenodd" clip-rule="evenodd" d="M13.5992 67.6164C6.10234 67.6164 0.00390625 61.518 0.00390625 54.0211C0.00390625 46.5258 6.10234 40.4258 13.5992 40.4258C21.0961 40.4258 27.1945 46.5242 27.1945 54.0211C27.1945 61.518 21.0961 67.6164 13.5992 67.6164ZM11.8742 58.1414C11.6383 58.1414 11.4023 58.0539 11.2195 57.8758V57.8742H11.218V57.8727H11.2164C11.2148 57.8711 11.2133 57.8695 11.2133 57.868H11.2117L8.29453 54.9492C7.92891 54.5836 7.92891 53.9898 8.29453 53.6242C8.66016 53.257 9.25391 53.257 9.61953 53.6242L11.8758 55.8789L17.5789 50.1758C17.9445 49.8086 18.5383 49.8086 18.9039 50.1758C19.2711 50.5414 19.2711 51.1352 18.9039 51.5008L12.5383 57.868H12.5367V57.8695H12.5352V57.8711H12.5336V57.8727C12.5336 57.8727 12.5336 57.8727 12.532 57.8727V57.8742C12.3664 58.0367 12.1555 58.1258 11.9398 58.1398C11.918 58.1414 11.8961 58.1414 11.8742 58.1414ZM13.5992 64.0336C8.07891 64.0336 3.58672 59.543 3.58672 54.0211C3.58672 48.5008 8.07891 44.0086 13.5992 44.0086C19.1195 44.0086 23.6117 48.5008 23.6117 54.0211C23.6117 59.543 19.1195 64.0336 13.5992 64.0336ZM13.5992 45.8836C9.11172 45.8836 5.46172 49.5336 5.46172 54.0211C5.46172 58.5086 9.11172 62.1586 13.5992 62.1586C18.0867 62.1586 21.7367 58.5086 21.7367 54.0211C21.7367 49.5336 18.0867 45.8836 13.5992 45.8836Z" fill="#91C954"/>
</g>
<defs>
<clipPath id="clip0_3322_2429">
<rect width="80" height="80" fill="white"/>
</clipPath>
</defs>
</svg>
