<svg width="80" height="80" viewBox="0 0 80 80" fill="none" xmlns="http://www.w3.org/2000/svg">
<path d="M27.5824 27.9941H20.8887V34.6866H27.5824V27.9941Z" fill="#91C954"/>
<path d="M27.5824 44.2656H20.8887V50.9581H27.5824V44.2656Z" fill="#91C954"/>
<path d="M14.5 15.4355V74.848H63.3263V50.7593L51.445 62.6405C51.7687 63.9788 51.7847 65.3731 51.492 66.7185C51.1992 68.0639 50.6053 69.3254 49.7548 70.4082C48.9043 71.491 47.8195 72.3669 46.5817 72.9701C45.344 73.5732 43.9856 73.8879 42.6087 73.8905C41.871 73.8898 41.136 73.8021 40.4188 73.6293C40.1985 73.5699 39.9993 73.45 39.8438 73.283C39.8121 73.2645 39.7816 73.2441 39.7525 73.2218C39.7174 73.1767 39.6857 73.129 39.6575 73.0793L39.6412 73.0555C39.4652 72.8195 39.3797 72.5281 39.4001 72.2343C39.4205 71.9405 39.5455 71.6638 39.7525 71.4543L43.7325 67.473L39.6575 63.3918L35.8638 67.1843C35.6922 67.4582 35.4203 67.6543 35.1063 67.7305C35.0097 67.7539 34.9106 67.7656 34.8113 67.7655C34.6413 67.7617 34.474 67.7225 34.32 67.6505H34.3125C34.1857 67.5945 34.0694 67.5171 33.9688 67.4218C33.9487 67.4043 33.9237 67.3993 33.905 67.3793C33.8816 67.3487 33.8603 67.3165 33.8413 67.283C33.7988 67.2303 33.7611 67.1738 33.7288 67.1143C33.6739 67.0221 33.6319 66.9228 33.6038 66.8193V66.8118C33.5963 66.7818 33.595 66.7518 33.5875 66.7218C33.5657 66.6442 33.5519 66.5647 33.5463 66.4843C33.2314 64.9816 33.3021 63.4237 33.752 61.9558C34.2019 60.4879 35.0161 59.1578 36.1189 58.0896C37.2217 57.0214 38.577 56.2499 40.0585 55.847C41.54 55.4441 43.0994 55.423 44.5912 55.7855L48.7238 51.6518H35.1637C34.8322 51.6518 34.5143 51.5201 34.2799 51.2857C34.0454 51.0513 33.9137 50.7333 33.9137 50.4018C33.9137 50.0703 34.0454 49.7523 34.2799 49.5179C34.5143 49.2835 34.8322 49.1518 35.1637 49.1518H51.2188L54.2825 46.0893H35.1575C34.826 46.0893 34.508 45.9576 34.2736 45.7232C34.0392 45.4888 33.9075 45.1708 33.9075 44.8393C33.9075 44.5078 34.0392 44.1898 34.2736 43.9554C34.508 43.721 34.826 43.5893 35.1575 43.5893H56.7825L59.4263 40.9455V40.9343C59.0588 39.4137 59.0894 37.824 59.5153 36.3187C59.9412 34.8134 60.7478 33.4433 61.8575 32.3405C62.3058 31.9003 62.798 31.507 63.3263 31.1668V15.4355H54.8263V15.7018C54.8246 16.6677 54.4404 17.5936 53.7578 18.2769C53.0752 18.9603 52.1496 19.3454 51.1838 19.348H26.6413C25.6741 19.3467 24.7469 18.9618 24.0631 18.2778C23.3793 17.5938 22.9947 16.6665 22.9937 15.6993V15.4355H14.5ZM35.1637 27.3105H58.2075C58.539 27.3105 58.857 27.4422 59.0914 27.6767C59.3258 27.9111 59.4575 28.229 59.4575 28.5605C59.4575 28.8921 59.3258 29.21 59.0914 29.4444C58.857 29.6789 58.539 29.8105 58.2075 29.8105H35.1637C34.8322 29.8105 34.5143 29.6789 34.2799 29.4444C34.0454 29.21 33.9137 28.8921 33.9137 28.5605C33.9137 28.229 34.0454 27.9111 34.2799 27.6767C34.5143 27.4422 34.8322 27.3105 35.1637 27.3105ZM35.1637 32.8743H51.9825C52.314 32.8743 52.632 33.006 52.8664 33.2404C53.1008 33.4748 53.2325 33.7928 53.2325 34.1243C53.2325 34.4558 53.1008 34.7738 52.8664 35.0082C52.632 35.2426 52.314 35.3743 51.9825 35.3743H35.1637C34.8322 35.3743 34.5143 35.2426 34.2799 35.0082C34.0454 34.7738 33.9137 34.4558 33.9137 34.1243C33.9137 33.7928 34.0454 33.4748 34.2799 33.2404C34.5143 33.006 34.8322 32.8743 35.1637 32.8743ZM30.0825 52.2105C30.0825 52.5421 29.9508 52.86 29.7164 53.0944C29.482 53.3288 29.164 53.4605 28.8325 53.4605H19.6388C19.3072 53.4605 18.9893 53.3288 18.7549 53.0944C18.5204 52.86 18.3888 52.5421 18.3888 52.2105V43.0168C18.3888 42.6853 18.5204 42.3673 18.7549 42.1329C18.9893 41.8985 19.3072 41.7668 19.6388 41.7668H28.8325C29.164 41.7668 29.482 41.8985 29.7164 42.1329C29.9508 42.3673 30.0825 42.6853 30.0825 43.0168V52.2105ZM28.8325 25.4943C29.164 25.4943 29.482 25.626 29.7164 25.8604C29.9508 26.0948 30.0825 26.4128 30.0825 26.7443V35.9368C30.0825 36.2683 29.9508 36.5863 29.7164 36.8207C29.482 37.0551 29.164 37.1868 28.8325 37.1868H19.6388C19.3072 37.1868 18.9893 37.0551 18.7549 36.8207C18.5204 36.5863 18.3888 36.2683 18.3888 35.9368V26.7443C18.3888 26.4128 18.5204 26.0948 18.7549 25.8604C18.9893 25.626 19.3072 25.4943 19.6388 25.4943H28.8325Z" fill="#050607"/>
<path d="M66.2444 45.1222C66.4256 45.1797 66.6006 45.2322 66.7769 45.2734C67.6668 45.4852 68.5908 45.5111 69.4911 45.3495C70.3914 45.1879 71.2488 44.8423 72.0095 44.3343C72.7702 43.8263 73.4179 43.1669 73.9121 42.3972C74.4064 41.6274 74.7365 40.764 74.8819 39.8609L72.0156 42.7234C71.7812 42.9578 71.4633 43.0894 71.1319 43.0894C70.8004 43.0894 70.4825 42.9578 70.2481 42.7234L64.4006 36.8759C64.1663 36.6415 64.0346 36.3236 64.0346 35.9922C64.0346 35.6607 64.1663 35.3428 64.4006 35.1084L67.2669 32.2422C66.3641 32.3883 65.5012 32.7191 64.732 33.2137C63.9628 33.7083 63.3039 34.3562 62.7963 35.1169C62.2888 35.8776 61.9435 36.7348 61.7821 37.6349C61.6206 38.535 61.6465 39.4588 61.8581 40.3484C61.8931 40.4884 61.9356 40.6322 61.9831 40.7759C62.0883 41.0061 62.1208 41.2628 62.0761 41.5119C62.0314 41.761 61.9118 41.9905 61.7331 42.1697L58.1931 45.7097L58.1831 45.7197L52.6306 51.2722L52.6206 51.2822L45.8394 58.0634C45.7873 58.1049 45.7317 58.1418 45.6731 58.1734C45.614 58.2206 45.5509 58.2625 45.4844 58.2984C45.3985 58.3346 45.3087 58.3611 45.2169 58.3772C45.1552 58.3952 45.092 58.4077 45.0281 58.4147C45.0031 58.4147 44.9794 58.4284 44.9556 58.4284C44.8734 58.4206 44.7922 58.4047 44.7131 58.3809C44.6691 58.3788 44.6253 58.3742 44.5819 58.3672C44.3981 58.3097 44.2206 58.2547 44.0419 58.2122C43.1525 57.9913 42.227 57.9578 41.324 58.1139C40.421 58.2699 39.5603 58.6121 38.7967 59.1186C38.0331 59.6252 37.3831 60.285 36.8882 61.0562C36.3933 61.8275 36.0642 62.6932 35.9219 63.5984L38.7744 60.7472C39.0088 60.5128 39.3267 60.3812 39.6581 60.3812C39.9896 60.3812 40.3075 60.5128 40.5419 60.7472L46.3881 66.5947C46.6225 66.8291 46.7541 67.147 46.7541 67.4784C46.7541 67.8099 46.6225 68.1278 46.3881 68.3622L43.4106 71.3397C44.3374 71.2259 45.2295 70.9166 46.0279 70.4324C46.8263 69.9481 47.5128 69.2999 48.042 68.5306C48.5712 67.7613 48.9311 66.8884 49.0979 65.9696C49.2646 65.0509 49.2345 64.1072 49.0094 63.2009C48.9669 63.0184 48.9131 62.8422 48.8556 62.6597C48.8487 62.6183 48.8441 62.5766 48.8419 62.5347C48.8159 62.4301 48.8041 62.3224 48.8069 62.2147C48.814 62.1526 48.8261 62.0911 48.8431 62.0309C48.8591 61.9373 48.8859 61.8458 48.9231 61.7584C48.9593 61.6932 49.0012 61.6313 49.0481 61.5734C49.0809 61.5131 49.119 61.4558 49.1619 61.4022L64.7494 45.8159C64.8696 45.5367 65.0886 45.3116 65.3644 45.1836C65.6402 45.0556 65.9535 45.0338 66.2444 45.1222Z" fill="#91C954"/>
<path d="M33.9379 9.99696H26.6416C26.3372 9.99729 26.0453 10.1185 25.8302 10.3339C25.615 10.5493 25.4941 10.8413 25.4941 11.1457V15.702C25.4945 16.0063 25.6154 16.2981 25.8305 16.5134C26.0456 16.7288 26.3373 16.85 26.6416 16.8507H51.1841C51.4887 16.8504 51.7807 16.7292 51.9961 16.5139C52.2114 16.2985 52.3326 16.0065 52.3329 15.702V11.1457C52.3326 10.8411 52.2114 10.5491 51.9961 10.3338C51.7807 10.1184 51.4887 9.99729 51.1841 9.99696H43.8891C43.7227 9.997 43.5578 9.96378 43.4044 9.89925C43.2509 9.83472 43.1118 9.74017 42.9954 9.62117C42.879 9.50217 42.7875 9.36111 42.7263 9.20626C42.6651 9.05142 42.6355 8.88591 42.6391 8.71946C42.6391 8.66821 42.6529 8.54071 42.6604 8.48946C42.5938 7.53366 42.1639 6.6396 41.459 5.99076C40.754 5.34193 39.8274 4.98754 38.8694 5.00033C37.9113 5.01313 36.9946 5.39214 36.3072 6.05957C35.6198 6.727 35.2139 7.63223 35.1729 8.58946C35.1729 8.57071 35.1841 8.63321 35.1879 8.71446C35.1916 8.88091 35.1619 9.04642 35.1008 9.20126C35.0396 9.35611 34.9481 9.49717 34.8316 9.61617C34.7152 9.73517 34.5762 9.82972 34.4227 9.89425C34.2692 9.95878 34.1044 9.992 33.9379 9.99196V9.99696Z" fill="#050607"/>
</svg>
