<svg width="80" height="80" viewBox="0 0 80 80" fill="none" xmlns="http://www.w3.org/2000/svg">
<g clip-path="url(#clip0_3322_2050)">
<path d="M12.6187 55.1777C11.387 55.1777 10.3848 56.1799 10.3848 57.4122C10.3848 58.6445 11.387 59.6467 12.6187 59.6467C13.851 59.6467 14.8532 58.6445 14.8532 57.4122C14.8532 56.1799 13.8503 55.1777 12.6187 55.1777Z" fill="#050607"/>
<path d="M18.96 46.0773C15.9961 44.5435 13.1195 44.4012 12.8015 44.3896L12.7185 44.3884C9.54592 44.3884 6.3788 45.5811 4.02894 47.6605C1.32996 50.0482 -0.15625 53.4796 -0.15625 57.323C-0.15625 62.0008 2.93336 67.7015 4.7754 70.6836C5.98939 72.649 7.31935 74.5002 8.52052 75.8948C10.2686 77.9255 11.4453 78.7165 12.7185 78.7165C13.9807 78.7165 15.1898 77.9047 16.8909 75.915C18.0799 74.524 19.3879 72.6758 20.5744 70.7117C22.3743 67.7314 25.3931 61.9953 25.3931 57.0624C25.3931 50.7349 21.8946 47.5958 18.96 46.0773ZM12.6184 64.4031C8.76344 64.4031 5.62745 61.2671 5.62745 57.4121C5.62745 53.5571 8.76344 50.4205 12.6184 50.4205C16.4734 50.4205 19.61 53.5571 19.61 57.4121C19.61 61.2671 16.4734 64.4031 12.6184 64.4031Z" fill="#050607"/>
<path d="M67.0679 12.3516C65.8362 12.3516 64.834 13.3538 64.834 14.5861C64.834 15.8184 65.8362 16.8206 67.0679 16.8206C68.3002 16.8206 69.3024 15.8184 69.3024 14.5861C69.3024 13.3538 68.3002 12.3516 67.0679 12.3516Z" fill="#91C954"/>
<path d="M73.4092 3.25067C70.4453 1.71747 67.5694 1.57526 67.2514 1.56366L67.1677 1.56244C63.9957 1.56244 60.8286 2.75507 58.4782 4.83454C55.7792 7.22224 54.293 10.6536 54.293 14.497C54.293 19.1748 57.3826 24.8755 59.2246 27.8577C60.4386 29.823 61.7692 31.6742 62.9697 33.0688C64.7178 35.0995 65.8952 35.8905 67.1677 35.8905C68.4306 35.8905 69.6391 35.0787 71.3401 33.089C72.5297 31.6974 73.8377 29.8498 75.0236 27.8857C76.8235 24.9054 79.8429 19.1693 79.8429 14.2364C79.8429 7.90828 76.3444 4.76984 73.4092 3.25067ZM67.0677 21.5771C63.2127 21.5771 60.0767 18.4411 60.0767 14.5861C60.0767 10.7305 63.2127 7.59455 67.0677 7.59455C70.9226 7.59455 74.0592 10.7305 74.0592 14.5861C74.0592 18.4411 70.9226 21.5771 67.0677 21.5771Z" fill="#91C954"/>
<path d="M25.2842 78.7043C23.9762 78.7043 22.9124 77.6472 22.9063 76.3374C22.8996 75.0239 23.9591 73.9539 25.2732 73.9472L27.4931 73.9369H27.5047C28.8127 73.9369 29.8765 74.994 29.8832 76.3038C29.8893 77.6173 28.8298 78.6872 27.5163 78.6939L25.2958 78.7043C25.2922 78.7043 25.2879 78.7043 25.2842 78.7043ZM34.6397 78.6592C33.3317 78.6592 32.2679 77.602 32.2618 76.2922C32.2551 74.9787 33.3146 73.9088 34.6287 73.9021L36.848 73.8911H36.8602C38.1682 73.8911 39.232 74.9482 39.2381 76.258C39.2448 77.5721 38.1846 78.6421 36.8712 78.6482L34.6513 78.6592C34.6476 78.6592 34.6434 78.6592 34.6397 78.6592ZM43.9952 78.6134C42.6866 78.6134 41.6234 77.5562 41.6166 76.2464C41.6105 74.9329 42.6701 73.863 43.9836 73.8569L46.2034 73.8459H46.2157C47.5236 73.8459 48.5875 74.903 48.5936 76.2129C48.6003 77.5263 47.5401 78.5963 46.2266 78.603L44.0068 78.6134C44.0031 78.6134 43.9989 78.6134 43.9952 78.6134ZM53.3501 78.5682C52.0421 78.5682 50.9788 77.5111 50.9721 76.2013C50.966 74.8878 52.0256 73.8178 53.3391 73.8111L54.6007 73.805H54.6037C54.8644 73.805 55.1103 73.794 55.3478 73.7714C56.6545 73.6482 57.8148 74.6107 57.9369 75.9187C58.0589 77.2267 57.0976 78.3857 55.7896 78.5078C55.4045 78.5438 55.0072 78.5676 54.6111 78.5621L53.3623 78.5682C53.358 78.5682 53.3543 78.5682 53.3501 78.5682ZM61.6167 75.1655C61.1186 75.1655 60.6163 75.0099 60.1879 74.6876C59.1387 73.8978 58.9281 72.4061 59.7179 71.3569C60.045 70.9217 60.3325 70.4316 60.5718 69.9C61.1113 68.7025 62.5194 68.1684 63.7175 68.708C64.915 69.2475 65.4491 70.6556 64.9095 71.8531C64.5256 72.7052 64.0581 73.5005 63.5185 74.217C63.0516 74.8383 62.3381 75.1655 61.6167 75.1655ZM63.6382 66.2708C62.4816 66.2708 61.4671 65.4261 61.2889 64.2481C61.1986 63.6481 61.0558 63.0646 60.866 62.5147C60.4375 61.2726 61.0967 59.9189 62.3381 59.4898C63.5808 59.0619 64.934 59.7211 65.363 60.9626C65.6468 61.7853 65.8586 62.6508 65.9923 63.5358C66.1888 64.8347 65.2953 66.0468 63.9965 66.2434C63.8762 66.2617 63.7566 66.2708 63.6382 66.2708ZM58.6626 58.7757C58.3055 58.7757 57.943 58.6951 57.6012 58.5248C57.1367 58.2923 56.6307 58.1196 56.0979 58.0109C54.8106 57.7485 53.98 56.4924 54.2418 55.2051C54.5042 53.9179 55.7603 53.0872 57.0476 53.3497C57.9888 53.5413 58.8902 53.8508 59.7283 54.2695C60.9032 54.8566 61.3793 56.2854 60.7921 57.4604C60.3752 58.2941 59.5354 58.7757 58.6626 58.7757ZM49.4664 57.5055C49.4109 57.5055 49.3541 57.5031 49.2973 57.4994L47.083 57.3438C45.7725 57.2516 44.785 56.1146 44.8771 54.8041C44.9693 53.4943 46.1046 52.5055 47.4168 52.5983L49.6312 52.754C50.9416 52.8461 51.9292 53.9832 51.837 55.2936C51.7485 56.5473 50.7042 57.5055 49.4664 57.5055ZM40.1341 56.8494C40.0779 56.8494 40.0218 56.8476 39.965 56.8433L38.491 56.7402C38.2469 56.7383 38.0034 56.7298 37.7653 56.7151C36.4543 56.6315 35.4594 55.5011 35.543 54.1901C35.626 52.8791 36.7576 51.8842 38.0674 51.9672C38.2878 51.9812 38.5167 51.9733 38.7455 51.9892L40.2989 52.0984C41.6093 52.1906 42.5969 53.3271 42.5047 54.6375C42.4162 55.8912 41.3719 56.8494 40.1341 56.8494ZM31.7552 53.5767C31.0594 53.5767 30.3697 53.2727 29.8997 52.688C29.3357 51.9867 28.8432 51.203 28.4342 50.3589C27.8617 49.1767 28.3567 47.7539 29.539 47.182C30.7212 46.6095 32.144 47.1039 32.7159 48.2862C32.9686 48.8074 33.2682 49.2859 33.6076 49.7083C34.4304 50.7319 34.2674 52.229 33.2438 53.0518C32.8044 53.4052 32.2782 53.5767 31.7552 53.5767ZM29.5121 44.7418C29.4114 44.7418 29.3101 44.7351 29.2076 44.7223C27.9045 44.5557 26.9834 43.3643 27.1495 42.0612C27.2624 41.1768 27.4528 40.3076 27.7159 39.4788C28.1126 38.2263 29.4499 37.5336 30.7017 37.9297C31.9542 38.327 32.6475 39.6637 32.2508 40.9162C32.0738 41.4734 31.945 42.0618 31.8681 42.6642C31.7149 43.8648 30.6913 44.7418 29.5121 44.7418ZM34.2668 37.0911C33.4245 37.0911 32.6097 36.6431 32.1775 35.8527C31.547 34.6997 31.9712 33.255 33.1236 32.6251C33.9494 32.1735 34.8423 31.8317 35.7774 31.6083C37.0555 31.3037 38.3384 32.0923 38.643 33.3698C38.9482 34.6472 38.1596 35.9302 36.8821 36.2354C36.3572 36.3605 35.8604 36.5503 35.4051 36.7993C35.0431 36.9971 34.6519 37.0911 34.2668 37.0911ZM43.4428 35.9992C42.1397 35.9992 41.0771 34.9493 41.0649 33.6432C41.0527 32.3297 42.1074 31.2549 43.4208 31.2427L45.6407 31.2219C45.6486 31.2213 45.656 31.2213 45.6639 31.2213C46.967 31.2213 48.0296 32.2717 48.0418 33.5773C48.054 34.8908 46.9993 35.9662 45.6859 35.9784L43.466 35.9992C43.4581 35.9992 43.4508 35.9992 43.4428 35.9992ZM52.7983 35.9119C51.4946 35.9119 50.4326 34.8615 50.4204 33.5553C50.4076 32.2418 51.4629 31.167 52.7757 31.1548L54.9956 31.134C55.0035 31.1334 55.0114 31.1334 55.0188 31.1334C56.3219 31.1334 57.3845 32.1838 57.3967 33.4894C57.4089 34.8035 56.3542 35.8783 55.0407 35.8905L52.8209 35.9113C52.813 35.9119 52.8056 35.9119 52.7983 35.9119Z" fill="#050607"/>
</g>
<defs>
<clipPath id="clip0_3322_2050">
<rect width="80" height="80" fill="white"/>
</clipPath>
</defs>
</svg>
