<svg width="80" height="80" viewBox="0 0 80 80" fill="none" xmlns="http://www.w3.org/2000/svg">
<g clip-path="url(#clip0_3322_2042)">
<path d="M40 0C34.8297 0 30.625 4.36096 30.625 9.53125C30.625 14.7015 34.8297 18.9062 40 18.9062C45.1703 18.9062 49.375 14.7015 49.375 9.53125C49.375 4.36096 45.1703 0 40 0Z" fill="#91C954"/>
<path d="M4.6875 51.7188C4.6875 56.889 9.04846 61.0938 14.2188 61.0938C19.389 61.0938 23.5938 56.889 23.5938 51.7188C23.5938 46.5485 19.389 42.3438 14.2188 42.3438C9.04846 42.3438 4.6875 46.5485 4.6875 51.7188Z" fill="#050607"/>
<path d="M65.7812 42.3438C60.611 42.3438 56.4062 46.5485 56.4062 51.7188C56.4062 56.889 60.611 61.0938 65.7812 61.0938C70.9515 61.0938 75.1562 56.889 75.1562 51.7188C75.1562 46.5485 70.9515 42.3438 65.7812 42.3438Z" fill="#050607"/>
<path d="M73.526 63.4375C71.3025 64.9121 68.6438 65.7812 65.7812 65.7812C62.9187 65.7812 60.2594 64.9121 58.0365 63.4375C57.5806 63.7396 57.2113 64.1437 56.795 64.4946L42.3438 52.9364V37.6562H54.0625V32.9688C54.0625 28.0768 51.5454 23.7701 47.7448 21.25C45.5212 22.7246 42.8625 23.5938 40 23.5938C37.1375 23.5938 34.4781 22.7246 32.2552 21.25C28.4546 23.7701 25.9375 28.0768 25.9375 32.9688V37.6562H37.6562V52.9364L23.205 64.4946C22.7887 64.1437 22.4194 63.7396 21.9635 63.4375C19.74 64.9121 17.0813 65.7812 14.2188 65.7812C11.3562 65.7812 8.54065 64.9121 6.31775 63.4375C2.51709 65.9576 0 70.4205 0 75.3125V80H28.2812V75.3125C28.2812 72.7032 27.5269 70.1324 26.2817 68.0389L40 57.063L53.7183 68.0389C52.4731 70.1324 51.7188 72.7032 51.7188 75.3125V80H80V75.3125C80 70.4205 77.3267 65.9576 73.526 63.4375Z" fill="#050607"/>
</g>
<defs>
<clipPath id="clip0_3322_2042">
<rect width="80" height="80" fill="white"/>
</clipPath>
</defs>
</svg>
