<svg width="80" height="80" viewBox="0 0 80 80" fill="none" xmlns="http://www.w3.org/2000/svg">
<path d="M54.1928 41.8184L56.3292 51.3765L65.2214 29.0684L42.6465 37.8825L52.3386 39.9909C53.2613 40.1919 53.989 40.9096 54.1928 41.8184Z" fill="#050607"/>
<path d="M37.6685 74.6683H72.1961C74.0287 74.6683 75.5196 73.1916 75.5196 71.3778V9.29049C75.5196 7.47672 74.0287 6 72.1961 6H65.6604V7.69767C65.6604 10.3303 63.4886 12.4736 60.8181 12.4736H49.0452C46.376 12.4736 44.203 10.3316 44.203 7.69767V6H37.6673C35.8347 6 34.3438 7.47672 34.3438 9.29049V71.3778C34.3438 73.1916 35.8347 74.6683 37.6673 74.6683H37.6685ZM61.8521 71.1381H48.0125C47.3139 71.1381 46.7469 70.5789 46.7469 69.8899C46.7469 69.2008 47.3139 68.6416 48.0125 68.6416H61.8521C62.5507 68.6416 63.1177 69.2008 63.1177 69.8899C63.1177 70.5789 62.5507 71.1381 61.8521 71.1381ZM41.43 35.6705L64.4732 26.7353C65.387 26.3808 66.3906 26.5855 67.0855 27.2721C67.7816 27.9586 67.9904 28.946 67.6297 29.8485L58.5703 52.5761C58.1995 53.5061 57.306 54.1003 56.3087 54.1003C56.2441 54.1003 56.1783 54.0978 56.1125 54.0928C55.0367 54.0091 54.1584 53.2552 53.9255 52.2166L51.7208 42.3551L41.7958 40.2518C40.7428 40.0233 39.977 39.157 39.8923 38.096C39.8075 37.0349 40.4263 36.06 41.43 35.6705Z" fill="#050607"/>
<path d="M49.0454 9.97705H60.8182C62.0927 9.97705 63.1293 8.9547 63.1293 7.69767V6H46.7344V7.69767C46.7344 8.9547 47.7709 9.97705 49.0454 9.97705Z" fill="#050607"/>
<path d="M9.9082 66.4885C9.9082 66.6009 10.0006 66.692 10.1145 66.692H16.8286C16.9425 66.692 17.0349 66.6009 17.0349 66.4885V61.252H9.9082V66.4885Z" fill="#91C954"/>
<path d="M31.8139 24.6438H16.7808C15.5265 24.6438 14.4166 25.5863 14.0837 26.9344L12.3701 33.9985C12.3688 34.006 12.3638 34.011 12.3612 34.0185L11.5664 37.249C14.9988 37.5424 23.9227 38.2414 31.8151 38.3201V24.6426L31.8139 24.6438Z" fill="#91C954"/>
<path d="M9.27545 58.7533H18.3006H18.3032H31.8124V55.2306H23.6276C22.0773 55.2306 20.6711 54.3106 19.8649 52.7702L18.6575 50.4596C18.1766 49.5446 18.2146 48.385 18.7563 47.5087C19.2106 46.7709 19.9713 46.3303 20.7876 46.3303H31.8112V40.8166C23.0113 40.7305 12.9521 39.8804 10.4525 39.6582L6.17594 43.7713H10.6892C14.0064 43.7713 16.7059 46.54 16.7059 49.9441C16.7059 51.3372 15.5833 52.4694 14.2038 52.4694H4.64453V53.6453C4.64453 56.4602 6.72142 58.7495 9.27545 58.7533Z" fill="#91C954"/>
<path d="M10.693 46.2676H4.64453V49.9725H14.2076C14.1785 47.9166 12.6142 46.2676 10.693 46.2676Z" fill="#91C954"/>
<path d="M20.9085 49.3143L22.1172 51.6261C22.4804 52.3201 23.0449 52.7346 23.6296 52.7346H31.8144V48.8262H20.9072C20.8553 48.926 20.8148 49.1345 20.9085 49.3143Z" fill="#91C954"/>
<path d="M7.67683 37.1124H8.99561L9.65247 34.4436C9.41327 34.3861 9.1652 34.3574 8.91334 34.3574H7.67683C6.97441 34.3574 6.40234 34.9753 6.40234 35.7355C6.40234 36.1175 6.54409 36.477 6.79975 36.7491C7.02503 36.9763 7.34397 37.1136 7.67556 37.1136L7.67683 37.1124Z" fill="#91C954"/>
<path d="M31.8123 17.4785H26.0753C25.6778 17.4785 25.3652 17.7868 25.3652 18.1788V22.1446H31.8111L31.8123 17.4785Z" fill="#91C954"/>
</svg>
