<svg width="80" height="80" viewBox="0 0 80 80" fill="none" xmlns="http://www.w3.org/2000/svg">
<path d="M28.125 8.75H38.125C38.8125 8.75 39.375 8.18749 39.375 7.5V5H26.875V7.5C26.875 8.18749 27.4375 8.75 28.125 8.75Z" fill="black"/>
<path d="M33.125 26.875C34.6783 26.875 35.9375 25.6158 35.9375 24.0625C35.9375 22.5092 34.6783 21.25 33.125 21.25C31.5717 21.25 30.3125 22.5092 30.3125 24.0625C30.3125 25.6158 31.5717 26.875 33.125 26.875Z" fill="black"/>
<path d="M29.0629 35H37.1879C37.6129 35 37.9754 34.65 37.9754 34.225C37.9754 31.55 35.8004 29.375 33.1254 29.375C30.4504 29.375 28.2754 31.55 28.2754 34.225C28.2754 34.65 28.6379 35 29.0629 35Z" fill="black"/>
<path d="M41.875 51.25H43.125C43.125 47.8 45.925 45 49.375 45H54.375V10C54.375 7.23747 52.1375 5 49.375 5H41.875V7.5C41.875 9.56245 40.1875 11.25 38.125 11.25H28.125C26.0625 11.25 24.375 9.56245 24.375 7.5V5H16.875C14.1125 5 11.875 7.23747 11.875 10V70C11.875 72.7625 14.1125 75 16.875 75H36.875C36.0875 73.9625 35.625 72.6625 35.625 71.25V57.5C35.625 54.05 38.425 51.25 41.875 51.25ZM27.8125 24.0625C27.8125 21.1375 30.2 18.75 33.125 18.75C36.05 18.75 38.4375 21.1375 38.4375 24.0625C38.4375 25.5625 37.8125 26.9125 36.8125 27.875C38.9875 29.15 40.475 31.5125 40.475 34.225C40.475 36.025 39 37.5 37.1875 37.5H29.0625C27.25 37.5 25.775 36.025 25.775 34.225C25.775 31.5125 27.2625 29.15 29.4375 27.875C28.4375 26.9125 27.8125 25.5625 27.8125 24.0625ZM25.625 41.25H45.625C46.3125 41.25 46.875 41.8125 46.875 42.5C46.875 43.1875 46.3125 43.75 45.625 43.75H25.625C24.9375 43.75 24.375 43.1875 24.375 42.5C24.375 41.8125 24.9375 41.25 25.625 41.25ZM30.9875 56.25H19.375C18.6875 56.25 18.125 55.6875 18.125 55C18.125 54.3125 18.6875 53.75 19.375 53.75H30.9875C31.675 53.75 32.2375 54.3125 32.2375 55C32.2375 55.6875 31.675 56.25 30.9875 56.25ZM19.375 50C18.6875 50 18.125 49.4375 18.125 48.75C18.125 48.0625 18.6875 47.5 19.375 47.5H38.5C39.1875 47.5 39.75 48.0625 39.75 48.75C39.75 49.4375 39.1875 50 38.5 50H19.375Z" fill="black"/>
<path d="M56.875 62.5C56.875 64.5624 55.1875 66.25 53.125 66.25C51.0625 66.25 49.375 64.5624 49.375 62.5V61.25H38.125V71.25C38.125 73.3125 39.8125 75 41.875 75H64.375C66.4375 75 68.125 73.3125 68.125 71.25V61.25H56.875V62.5Z" fill="#91C954"/>
<path d="M54.375 62.5V61.25H51.875V62.5C51.875 63.1875 52.4375 63.75 53.125 63.75C53.8125 63.75 54.375 63.1875 54.375 62.5Z" fill="#91C954"/>
<path d="M64.375 53.75H60.625V51.25C60.625 49.1875 58.9375 47.5 56.875 47.5H49.375C47.3125 47.5 45.625 49.1875 45.625 51.25V53.75H41.875C39.8125 53.75 38.125 55.4375 38.125 57.5V58.75H68.125V57.5C68.125 55.4375 66.4375 53.75 64.375 53.75ZM58.125 53.75H48.125V51.25C48.125 50.5625 48.6875 50 49.375 50H56.875C57.5625 50 58.125 50.5625 58.125 51.25V53.75Z" fill="#91C954"/>
</svg>
