<svg width="28" height="28" viewBox="0 0 28 28" fill="none" xmlns="http://www.w3.org/2000/svg">
<path fill-rule="evenodd" clip-rule="evenodd" d="M10.0119 13.3024H11.0652C11.2459 13.3024 11.3933 13.4497 11.3933 13.6305V15.379C11.3933 15.5597 11.2459 15.7071 11.0652 15.7071H10.0119C9.83112 15.7071 9.68373 15.5597 9.68373 15.379V13.6305C9.68373 13.4498 9.83112 13.3024 10.0119 13.3024ZM25.107 2.0625H2.89297C1.78309 2.0625 0.875 2.97059 0.875 4.08052V17.9634C0.875 19.0733 1.78309 19.9814 2.89297 19.9814H9.87498V23.1875H6.80329C5.85676 23.1875 5.08238 23.8062 5.08238 24.5625V25.9375H22.9176V24.5625C22.9176 23.8062 22.1432 23.1875 21.1967 23.1875H18.125V19.9814H25.107C26.2169 19.9814 27.125 19.0733 27.125 17.9633V4.08052C27.125 2.97064 26.2169 2.0625 25.107 2.0625ZM25.4375 16.5821H2.56249V4.02988C2.56249 3.87594 2.68844 3.74999 2.84233 3.74999H25.1576C25.3115 3.74999 25.4375 3.87599 25.4375 4.02988V16.5821H25.4375ZM10.4898 8.3158C10.4186 8.0166 10.3 7.73075 10.1387 7.46885L10.3831 6.9188L9.73459 6.27032L9.18438 6.51472C8.92254 6.3535 8.6368 6.23488 8.33766 6.16368L8.12153 5.6022H7.20448L6.98835 6.16368C6.68921 6.23488 6.40347 6.3535 6.14162 6.51472L5.59136 6.27032L4.94293 6.9188L5.18727 7.46896C5.02605 7.7308 4.90744 8.01655 4.83623 8.31574L4.27481 8.53181V9.44887L4.83618 9.66494C4.90738 9.96413 5.026 10.25 5.18727 10.5119L4.94298 11.0619L5.59147 11.7104L6.14168 11.466C6.40352 11.6272 6.68927 11.7459 6.98841 11.8171L7.20453 12.3785H8.12164L8.33771 11.8172C8.63696 11.746 8.92276 11.6273 9.18466 11.4661L9.7347 11.7104L10.3832 11.0619L10.1388 10.5117C10.3 10.2498 10.4186 9.96408 10.4898 9.66494L11.0513 9.44881V8.5317L10.4898 8.3158ZM7.66298 10.5898C6.77961 10.5898 6.06359 9.87384 6.06359 8.99042C6.06359 8.10705 6.77955 7.39103 7.66298 7.39103C8.5464 7.39103 9.26237 8.107 9.26237 8.99042C9.26237 9.87379 8.54634 10.5898 7.66298 10.5898ZM19.7632 6.23045C19.5226 6.23045 19.3274 6.03533 19.3274 5.79465C19.3274 5.55397 19.5226 5.35884 19.7632 5.35884L21.1236 5.35387C21.3991 5.35387 21.6034 5.60543 21.5514 5.87318L21.2888 7.20799C21.2425 7.4449 21.013 7.59945 20.7761 7.55318C20.5392 7.50691 20.3847 7.27739 20.4309 7.04048L20.4382 7.00368L18.1303 9.1033C18.0076 9.22613 17.8177 9.26862 17.6484 9.19588L14.2394 7.72998L12.1895 9.28655C11.9979 9.43191 11.7247 9.3944 11.5794 9.20283C11.434 9.01126 11.4715 8.73809 11.6631 8.59273L13.9166 6.88162C14.0459 6.78351 14.2125 6.76874 14.3518 6.82841L17.7355 8.28167L19.9912 6.22952L19.7632 6.23045ZM17.2943 11.584H18.3476C18.5283 11.584 18.6757 11.7314 18.6757 11.9122V15.379C18.6757 15.5598 18.5283 15.7071 18.3476 15.7071H17.2943C17.1135 15.7071 16.9661 15.5598 16.9661 15.379V11.9122C16.9661 11.7314 17.1135 11.584 17.2943 11.584ZM20.9355 8.17563H21.9888C22.1695 8.17563 22.3169 8.32302 22.3169 8.50376V15.379C22.3169 15.5598 22.1695 15.7071 21.9888 15.7071H20.9355C20.7547 15.7071 20.6073 15.5598 20.6073 15.379V8.50376C20.6073 8.32302 20.7547 8.17563 20.9355 8.17563ZM13.6531 10.4181H14.7063C14.8871 10.4181 15.0345 10.5655 15.0345 10.7463V15.379C15.0345 15.5598 14.8871 15.7071 14.7063 15.7071H13.6531C13.4723 15.7071 13.3249 15.5598 13.3249 15.379V10.7463C13.3249 10.5655 13.4723 10.4181 13.6531 10.4181Z" fill="#F6F7F6"/>
</svg>
