<svg width="28" height="28" viewBox="0 0 28 28" fill="none" xmlns="http://www.w3.org/2000/svg">
<path fill-rule="evenodd" clip-rule="evenodd" d="M27.1436 6.50606H25.6387C25.397 6.50606 25.2012 6.31022 25.2012 6.06858C25.2012 5.82695 25.397 5.6311 25.6387 5.6311H27.1436C27.3852 5.6311 27.5811 5.82701 27.5811 6.06858C27.5811 6.31022 27.3851 6.50606 27.1436 6.50606ZM27.1436 13.0661H25.6387C25.397 13.0661 25.2012 12.8702 25.2012 12.6286C25.2012 12.3869 25.397 12.1911 25.6387 12.1911H27.1436C27.3852 12.1911 27.5811 12.387 27.5811 12.6286C27.5811 12.8702 27.3851 13.0661 27.1436 13.0661ZM27.1436 8.69262H25.6387C25.397 8.69262 25.2012 8.49678 25.2012 8.25514C25.2012 8.0135 25.397 7.81766 25.6387 7.81766H27.1436C27.3852 7.81766 27.5811 8.01357 27.5811 8.25514C27.5811 8.49678 27.3851 8.69262 27.1436 8.69262ZM27.1436 15.2528H25.6387C25.397 15.2528 25.2012 15.0569 25.2012 14.8153C25.2012 14.5737 25.397 14.3778 25.6387 14.3778L27.1436 14.3779C27.3852 14.3779 27.5811 14.5737 27.5811 14.8153C27.5811 15.057 27.3851 15.2528 27.1436 15.2528ZM27.1436 10.8794H25.6387C25.397 10.8794 25.2012 10.6836 25.2012 10.442C25.2012 10.2003 25.397 10.0045 25.6387 10.0045H27.1436C27.3852 10.0045 27.5811 10.2004 27.5811 10.442C27.5811 10.6836 27.3851 10.8794 27.1436 10.8794Z" fill="#F6F7F6"/>
<path fill-rule="evenodd" clip-rule="evenodd" d="M3.36781 23.2204C1.51074 23.2204 0 21.7097 0 19.8526C0 18.7558 1.14224 16.799 2.4147 14.7203C2.646 14.3425 2.84565 14.0163 2.98834 13.7676C3.0663 13.6317 3.21111 13.5479 3.36775 13.5479C3.52451 13.5479 3.66926 13.6317 3.74723 13.7676C3.88991 14.0163 4.08969 14.3427 4.32099 14.7205C5.59339 16.7992 6.7355 18.7559 6.7355 19.8527C6.73556 21.7097 5.22483 23.2204 3.36781 23.2204Z" fill="#F6F7F6"/>
<path fill-rule="evenodd" clip-rule="evenodd" d="M23.3739 25.2783C20.8237 25.2783 18.749 23.2036 18.749 20.6534C18.749 19.1549 19.4634 17.769 20.672 16.8994V5.42349C20.672 3.93368 21.884 2.72168 23.3738 2.72168C24.6334 2.72168 25.6943 3.58811 25.9922 4.75619H25.6382C24.9137 4.75619 24.3257 5.3441 24.3257 6.06863C24.3257 6.52471 24.5587 6.92667 24.9121 7.16191C24.5587 7.39715 24.3257 7.79911 24.3257 8.25519C24.3257 8.71134 24.5588 9.11335 24.9123 9.3486C24.5588 9.58384 24.3257 9.98586 24.3257 10.442C24.3257 10.8981 24.5587 11.3001 24.9121 11.5353C24.5587 11.7705 24.3257 12.1725 24.3257 12.6286C24.3257 13.0848 24.5588 13.4867 24.9122 13.722C24.5588 13.9572 24.3257 14.3592 24.3257 14.8154C24.3257 15.5399 24.9137 16.1278 25.6382 16.1278H26.0757V16.8993C27.2843 17.7688 27.9988 19.1547 27.9988 20.6534C27.9988 23.2036 25.9241 25.2783 23.3739 25.2783ZM23.2315 22.8899C21.9982 22.8899 20.9949 21.8866 20.9949 20.6534C20.9949 19.5698 21.7695 18.6638 22.794 18.4598V5.5165C22.794 5.27493 22.9899 5.07902 23.2315 5.07902C23.4731 5.07902 23.669 5.27493 23.669 5.5165V18.4598C24.6934 18.6639 25.468 19.5698 25.468 20.6534C25.468 21.8867 24.4647 22.8899 23.2315 22.8899ZM23.2315 19.292L23.2209 19.2918C22.475 19.2976 21.8698 19.9061 21.8698 20.6534C21.8698 21.4042 22.4807 22.015 23.2315 22.015C23.9823 22.015 24.5931 21.4041 24.5931 20.6534C24.5931 19.9061 23.9879 19.2976 23.2421 19.2918L23.2315 19.292Z" fill="#F6F7F6"/>
<path fill-rule="evenodd" clip-rule="evenodd" d="M11.1127 24.7281C9.3147 24.7281 7.61219 24.0881 6.27676 22.9387C7.09772 22.1645 7.6109 21.0676 7.61084 19.8525C7.61084 18.289 5.88307 15.5956 5.0676 14.2635C4.95101 14.0731 4.8332 13.8825 4.71777 13.6907C5.89257 11.0372 7.84718 7.8441 9.35669 5.37805C9.91043 4.47344 10.3887 3.69214 10.7332 3.09163C10.8112 2.95567 10.956 2.87183 11.1126 2.87183C11.2694 2.87183 11.4141 2.95567 11.4921 3.09163C11.8368 3.69246 12.3153 4.47428 12.8694 5.37947C15.2619 9.28792 18.5385 14.6408 18.5385 17.3022C18.5386 21.3969 15.2073 24.7281 11.1127 24.7281ZM11.8119 16.784C11.6461 16.784 11.494 16.6738 11.4482 16.5061L10.0375 11.3458C9.98245 11.1448 10.1009 10.9373 10.3019 10.8824C10.5029 10.8273 10.7103 10.9458 10.7653 11.1468L12.1761 16.3071C12.2311 16.5081 12.1126 16.7155 11.9116 16.7705C11.8783 16.7797 11.8448 16.784 11.8119 16.784ZM9.12655 16.6071C8.35396 16.6071 7.72549 15.9785 7.72549 15.2059C7.72549 14.4334 8.35396 13.8048 9.12655 13.8048C9.89913 13.8048 10.5276 14.4334 10.5276 15.2059C10.5276 15.9785 9.89913 16.6071 9.12655 16.6071ZM9.12655 14.5594C8.77 14.5594 8.48005 14.8493 8.48005 15.2059C8.48005 15.5624 8.77006 15.8524 9.12655 15.8524C9.48309 15.8524 9.77311 15.5624 9.77311 15.2059C9.77311 14.8493 9.48303 14.5594 9.12655 14.5594ZM13.0988 13.6184C12.3263 13.6184 11.6979 12.9899 11.6979 12.2173C11.6979 11.4448 12.3264 10.8163 13.0988 10.8163C13.8714 10.8163 14.4998 11.4448 14.4998 12.2173C14.4998 12.9899 13.8714 13.6184 13.0988 13.6184ZM13.0988 11.5708C12.7423 11.5708 12.4524 11.8608 12.4524 12.2173C12.4524 12.5738 12.7423 12.8638 13.0988 12.8638C13.4553 12.8638 13.7453 12.5738 13.7453 12.2173C13.7453 11.8608 13.4553 11.5708 13.0988 11.5708Z" fill="#F6F7F6"/>
</svg>
