<svg width="26" height="26" viewBox="0 0 26 26" fill="none" xmlns="http://www.w3.org/2000/svg">
<path d="M3.9375 10.5H4.8125V14H3.9375V10.5Z" fill="#F6F7F6"/>
<path d="M18.375 15.75V10.0612C17.6564 9.75901 17.0074 9.31276 16.468 8.75H1.75V15.75H18.375ZM14.4375 11.8125C14.4375 11.6965 14.4836 11.5852 14.5656 11.5031C14.6477 11.4211 14.759 11.375 14.875 11.375H17.0625V12.25H15.3125V14H16.1875V13.5625H15.75V12.6875H16.625C16.741 12.6875 16.8523 12.7336 16.9344 12.8156C17.0164 12.8977 17.0625 13.009 17.0625 13.125V14.4375C17.0625 14.5535 17.0164 14.6648 16.9344 14.7469C16.8523 14.8289 16.741 14.875 16.625 14.875H14.875C14.759 14.875 14.6477 14.8289 14.5656 14.7469C14.4836 14.6648 14.4375 14.5535 14.4375 14.4375V11.8125ZM11.8125 11.375H12.6875V12.5657C12.82 12.4895 12.9302 12.3798 13.007 12.2476C13.0838 12.1154 13.1245 11.9654 13.125 11.8125V11.375H14V11.8125C13.9992 12.0618 13.9448 12.3081 13.8405 12.5345C13.7361 12.761 13.5844 12.9624 13.3954 13.125C13.5844 13.2876 13.7361 13.489 13.8405 13.7155C13.9448 13.9419 13.9992 14.1882 14 14.4375V14.875H13.125V14.4375C13.1245 14.2846 13.0838 14.1346 13.007 14.0024C12.9302 13.8702 12.82 13.7605 12.6875 13.6843V14.875H11.8125V11.375ZM10.0625 14H10.9375V14.875H10.0625V14ZM6.5625 10.0625C6.5625 9.94647 6.60859 9.83519 6.69064 9.75314C6.77269 9.67109 6.88397 9.625 7 9.625H8.75C8.86603 9.625 8.97731 9.67109 9.05936 9.75314C9.14141 9.83519 9.1875 9.94647 9.1875 10.0625V14.4375C9.1875 14.5535 9.14141 14.6648 9.05936 14.7469C8.97731 14.8289 8.86603 14.875 8.75 14.875H7C6.88397 14.875 6.77269 14.8289 6.69064 14.7469C6.60859 14.6648 6.5625 14.5535 6.5625 14.4375V10.0625ZM3.0625 10.0625C3.0625 9.94647 3.10859 9.83519 3.19064 9.75314C3.27269 9.67109 3.38397 9.625 3.5 9.625H5.25C5.36603 9.625 5.47731 9.67109 5.55936 9.75314C5.64141 9.83519 5.6875 9.94647 5.6875 10.0625V14.4375C5.6875 14.5535 5.64141 14.6648 5.55936 14.7469C5.47731 14.8289 5.36603 14.875 5.25 14.875H3.5C3.38397 14.875 3.27269 14.8289 3.19064 14.7469C3.10859 14.6648 3.0625 14.5535 3.0625 14.4375V10.0625Z" fill="#F6F7F6"/>
<path d="M7.4375 10.5H8.3125V14H7.4375V10.5Z" fill="#F6F7F6"/>
<path d="M19.25 16.1875C19.25 16.3035 19.2039 16.4148 19.1219 16.4969C19.0398 16.5789 18.9285 16.625 18.8125 16.625H1.3125C1.19647 16.625 1.08519 16.5789 1.00314 16.4969C0.921094 16.4148 0.875 16.3035 0.875 16.1875V8.3125C0.875 8.19647 0.921094 8.08519 1.00314 8.00314C1.08519 7.92109 1.19647 7.875 1.3125 7.875H15.7776C15.4327 7.33784 15.1812 6.74614 15.0339 6.125H1.3125C0.964523 6.12539 0.630911 6.2638 0.384854 6.50985C0.138797 6.75591 0.000390815 7.08952 0 7.4375V24.0625C0.000390815 24.4105 0.138797 24.7441 0.384854 24.9901C0.630911 25.2362 0.964523 25.3746 1.3125 25.375H18.8125C19.1605 25.3746 19.4941 25.2362 19.7401 24.9901C19.9862 24.7441 20.1246 24.4105 20.125 24.0625V10.4781C19.8302 10.4555 19.5376 10.4098 19.25 10.3414V16.1875ZM19.25 24.5H12.25V23.625H19.25V24.5Z" fill="#F6F7F6"/>
<path d="M20.5625 0C19.6107 0 18.6802 0.282248 17.8888 0.811052C17.0974 1.33986 16.4806 2.09147 16.1163 2.97084C15.7521 3.85021 15.6568 4.81784 15.8425 5.75137C16.0282 6.68491 16.4865 7.54241 17.1596 8.21545C17.8326 8.88849 18.6901 9.34684 19.6236 9.53253C20.5572 9.71822 21.5248 9.62292 22.4042 9.25867C23.2835 8.89442 24.0351 8.27759 24.5639 7.48618C25.0928 6.69477 25.375 5.76432 25.375 4.8125C25.3736 3.53659 24.8661 2.31335 23.9639 1.41115C23.0617 0.508942 21.8384 0.00144743 20.5625 0ZM19.6875 7.4375C19.687 6.97351 19.5025 6.52866 19.1744 6.20057C18.8463 5.87249 18.4015 5.68796 17.9375 5.6875V4.8125C18.6335 4.81325 19.3007 5.09006 19.7928 5.58218C20.2849 6.0743 20.5617 6.74154 20.5625 7.4375H19.6875ZM21.4375 7.4375C21.4364 6.50957 21.0674 5.61994 20.4112 4.96379C19.7551 4.30764 18.8654 3.93856 17.9375 3.9375V3.0625C19.0974 3.06395 20.2093 3.52535 21.0295 4.34551C21.8497 5.16566 22.3111 6.27762 22.3125 7.4375H21.4375ZM23.1875 7.4375C23.1861 6.04556 22.6325 4.71104 21.6482 3.72679C20.664 2.74254 19.3294 2.18895 17.9375 2.1875V1.3125C19.5614 1.31432 21.1183 1.96022 22.2665 3.10849C23.4148 4.25675 24.0607 5.81361 24.0625 7.4375H23.1875Z" fill="#F6F7F6"/>
</svg>
