<svg width="28" height="28" viewBox="0 0 28 28" fill="none" xmlns="http://www.w3.org/2000/svg">
<g clip-path="url(#clip0_3408_1327)">
<path d="M7.21875 19.25C7.82281 19.25 8.3125 18.7603 8.3125 18.1562C8.3125 17.5522 7.82281 17.0625 7.21875 17.0625C6.61469 17.0625 6.125 17.5522 6.125 18.1562C6.125 18.7603 6.61469 19.25 7.21875 19.25Z" fill="#F6F7F6"/>
<path d="M13.9996 3.5C8.35673 3.5 3.73891 7.97519 3.50879 13.5625H10.091C10.1444 13.0896 10.287 12.6302 10.5062 12.2045L9.58873 7.47294C9.57429 7.38587 9.56335 7.30319 9.56335 7.2275C9.56335 6.73181 9.85385 6.27725 10.3027 6.06987C10.8352 5.82356 11.4647 5.96838 11.8327 6.42338L14.8654 10.1644C16.5091 10.5302 17.7262 11.9026 17.9104 13.5634H24.4909C24.2607 7.97606 19.6429 3.50087 14 3.50087L13.9996 3.5ZM8.3121 9.1875H6.9996V10.0625H7.8746C8.1161 10.0625 8.3121 10.2581 8.3121 10.5C8.3121 10.7419 8.1161 10.9375 7.8746 10.9375H6.9996V11.8125C6.9996 12.0544 6.8036 12.25 6.5621 12.25C6.3206 12.25 6.1246 12.0544 6.1246 11.8125V8.75C6.1246 8.50806 6.3206 8.3125 6.5621 8.3125H8.3121C8.5536 8.3125 8.7496 8.50806 8.7496 8.75C8.7496 8.99194 8.5536 9.1875 8.3121 9.1875ZM20.9996 12.25H19.2496C19.0081 12.25 18.8121 12.0544 18.8121 11.8125V8.75C18.8121 8.50806 19.0081 8.3125 19.2496 8.3125H20.9996C21.2411 8.3125 21.4371 8.50806 21.4371 8.75C21.4371 8.99194 21.2411 9.1875 20.9996 9.1875H19.6871V9.625H20.5621C20.8036 9.625 20.9996 9.82056 20.9996 10.0625C20.9996 10.3044 20.8036 10.5 20.5621 10.5H19.6871V11.375H20.9996C21.2411 11.375 21.4371 11.5706 21.4371 11.8125C21.4371 12.0544 21.2411 12.25 20.9996 12.25Z" fill="#F6F7F6"/>
<path d="M11.1529 6.97328C11.037 6.83021 10.8397 6.78515 10.6704 6.86303C10.5273 6.92909 10.4385 7.06909 10.4385 7.22703C10.4385 7.25634 10.445 7.28784 10.4499 7.31715L11.2076 11.2249C11.8604 10.5678 12.7358 10.1622 13.6742 10.0839L11.1529 6.97328Z" fill="#F6F7F6"/>
<path d="M2.63574 13.5625C2.86674 7.49219 7.87437 2.625 13.9998 2.625C20.1252 2.625 25.1329 7.49219 25.3639 13.5625H27.9889C27.757 6.034 21.5847 0 13.9998 0C6.41487 0 0.242617 6.034 0.0107422 13.5625H2.63574Z" fill="#F6F7F6"/>
<path d="M14.5442 10.9874C14.3696 10.9533 14.1938 10.9375 14 10.9375C12.9023 10.9375 11.8846 11.5286 11.3439 12.4793C11.1483 12.8209 11.025 13.1841 10.9707 13.5625H17.0235C16.838 12.2736 15.8571 11.2228 14.5442 10.9874Z" fill="#F6F7F6"/>
<path d="M14 17.3793L11.788 20.4843C11.5172 20.861 11.375 21.2989 11.375 21.7526C11.375 22.352 11.6502 22.9255 12.1502 23.3674C12.6577 23.8154 13.3144 24.0626 14 24.0626C15.4227 24.0626 16.625 23.0047 16.625 21.7526C16.625 21.2989 16.4824 20.861 16.2129 20.4856L14 17.3793ZM14 23.1876C13.7585 23.1876 13.5625 22.992 13.5625 22.7501C13.5625 22.5082 13.7585 22.3126 14 22.3126C14.4826 22.3126 14.875 21.9202 14.875 21.4376C14.875 21.1957 15.071 21.0001 15.3125 21.0001C15.554 21.0001 15.75 21.1957 15.75 21.4376C15.75 22.4027 14.9651 23.1876 14 23.1876Z" fill="#F6F7F6"/>
<path d="M24.9373 14.4375H0.0107422C0.242617 21.966 6.41487 28 13.9998 28C21.5847 28 27.757 21.966 27.9889 14.4375H24.9373ZM7.21855 20.125C6.13312 20.125 5.2498 19.2417 5.2498 18.1562C5.2498 17.0708 6.13312 16.1875 7.21855 16.1875C8.30399 16.1875 9.1873 17.0708 9.1873 18.1562C9.1873 19.2417 8.30399 20.125 7.21855 20.125ZM13.9998 24.9375C13.1007 24.9375 12.2384 24.6129 11.5708 24.0227C10.88 23.4119 10.4998 22.6061 10.4998 21.7525C10.4998 21.1142 10.6993 20.4999 11.0764 19.9749L13.6437 16.3717C13.8077 16.1411 14.1923 16.1411 14.3564 16.3717L16.9245 19.9767C17.3007 20.4999 17.4998 21.1146 17.4998 21.7529C17.4998 23.4793 15.8968 24.9375 13.9998 24.9375ZM22.3123 18.5938C22.0708 18.5938 21.8748 18.3982 21.8748 18.1562C21.8748 17.5529 21.3839 17.0625 20.7811 17.0625C20.1782 17.0625 19.6873 17.5529 19.6873 18.1562C19.6873 18.7596 20.1782 19.25 20.7811 19.25C21.0226 19.25 21.2186 19.4456 21.2186 19.6875C21.2186 19.9294 21.0226 20.125 20.7811 20.125C19.6956 20.125 18.8123 19.2417 18.8123 18.1562C18.8123 17.0708 19.6956 16.1875 20.7811 16.1875C21.8665 16.1875 22.7498 17.0708 22.7498 18.1562C22.7498 18.3982 22.5538 18.5938 22.3123 18.5938Z" fill="#F6F7F6"/>
</g>
<defs>
<clipPath id="clip0_3408_1327">
<rect width="28" height="28" fill="white"/>
</clipPath>
</defs>
</svg>
