<svg width="23" height="22" viewBox="0 0 23 22" fill="none" xmlns="http://www.w3.org/2000/svg">
<path fill-rule="evenodd" clip-rule="evenodd" d="M14.559 5.1727L8.16374 11.5681C8.13383 11.598 8.15506 11.649 8.19734 11.6489C9.98217 11.6456 10.9665 11.6445 11.761 11.8949C11.7783 11.9004 11.7959 11.8961 11.8087 11.8833L16.5392 7.15281C16.7796 6.9124 17.0901 6.80275 17.4342 6.84576L19.2536 7.07306C19.5944 7.11562 19.9056 7.00889 20.1485 6.76596L21.3964 5.518C21.6168 5.29758 21.7235 5.02486 21.711 4.71339L21.6121 2.25281C21.6104 2.21153 21.5605 2.19205 21.5313 2.22122C20.7604 2.99217 19.9894 3.76318 19.2184 4.53413C18.9787 4.77381 18.5878 4.77376 18.3482 4.53413L17.1779 3.36385C16.9383 3.12417 16.9383 2.73329 17.1779 2.49361C17.9489 1.72265 18.7199 0.951646 19.4909 0.180638C19.5201 0.151406 19.5006 0.101511 19.4593 0.0998866L16.9987 0.000990659C16.6873 -0.0115533 16.4144 0.0951267 16.194 0.315487L14.9461 1.5635C14.7032 1.80637 14.5964 2.11757 14.639 2.45833L14.8663 4.27771C14.9092 4.62183 14.7995 4.93235 14.559 5.1727ZM16.0788 18.0468C15.5589 18.2607 15.1548 18.7453 15.1548 19.5024C15.1548 20.3941 15.8775 21.1167 16.769 21.1167C17.6607 21.1167 18.3833 20.3941 18.3833 19.5024C18.3833 18.7295 17.9736 18.2607 17.443 18.0402L17.4428 18.0407C16.9965 17.8623 16.5278 17.8795 16.0803 18.0463C16.0798 18.0464 16.0793 18.0466 16.0788 18.0468ZM6.1068 18.3609C5.47646 17.7306 4.45418 17.7306 3.82385 18.3609C3.19351 18.9913 3.19351 20.0135 3.82385 20.6439C4.45424 21.2742 5.47646 21.2742 6.1068 20.6439C6.73714 20.0135 6.73714 18.9913 6.1068 18.3609ZM13.8267 14.1867C14.2631 14.5707 15.4059 14.9985 15.9192 15.1425C17.4314 15.567 19.117 15.8986 20.6096 16.2354C21.2859 16.388 21.874 16.8288 21.9821 17.5059C22.0504 17.9339 22.0052 18.4635 21.9833 18.9604C21.9784 19.0702 21.8817 19.1472 21.7683 19.1472H19.1126C19.0889 19.1472 19.0691 19.1301 19.0658 19.1067C18.9382 18.2309 18.3874 17.6562 17.7062 17.3835L17.7065 17.383C16.3778 16.852 14.7042 17.5211 14.4725 19.1067C14.4691 19.1301 14.4493 19.1472 14.4257 19.1472H7.30313C7.27989 19.1472 7.2604 19.1308 7.25648 19.1078C7.17377 18.624 6.94154 18.1912 6.60895 17.8587C5.33702 16.5867 3.17929 17.1895 2.72082 18.8952C2.71432 18.9195 2.69018 18.9344 2.6656 18.9293L0.426216 18.4692C0.21364 18.4255 0 18.2822 0 18.0625V15.3546C0 14.9777 0.332304 14.7229 0.701456 14.6412L2.90573 14.1533C2.97976 14.137 3.04914 14.0969 3.10134 14.0341C4.49557 12.3549 4.69426 12.355 7.48059 12.3567C7.69614 12.3568 7.92635 12.3569 8.17275 12.3564C9.97763 12.3522 10.8878 12.3549 11.5779 12.5807C12.248 12.8 12.7796 13.2655 13.8267 14.1867ZM16.9263 7.78348C16.9192 7.76567 16.9229 7.74652 16.9364 7.7328C17.056 7.61055 17.144 7.506 17.3484 7.53153L19.1678 7.75884C19.6652 7.821 20.1447 7.67859 20.5216 7.36079C20.5482 7.33833 20.5888 7.3511 20.5978 7.3847L21.1426 9.41778C21.148 9.43794 21.1401 9.45838 21.1226 9.46975L19.528 10.5053C19.5156 10.5134 19.5082 10.5255 19.5066 10.5402C19.4237 11.3662 19.2057 12.1656 18.8701 12.909C18.864 12.9225 18.8643 12.9367 18.871 12.95L19.7355 14.6466C19.7449 14.6651 19.7415 14.6868 19.7268 14.7015L19.2411 15.1872C19.2294 15.1989 19.2138 15.2035 19.1976 15.1999C18.1551 14.9731 17.111 14.7409 16.1106 14.46C15.8845 14.3965 15.5436 14.2781 15.2064 14.1378C15.1726 14.1237 15.1668 14.0788 15.1959 14.0565C17.1511 12.5608 17.8047 9.98299 16.9263 7.78348ZM8.12722 5.97759C6.61046 7.49435 6.1889 9.69157 6.86246 11.5865C6.8735 11.6175 6.85082 11.6496 6.818 11.6497C4.9201 11.6567 4.29996 11.7387 3.44529 12.5818C3.41942 12.6073 3.37574 12.5955 3.36633 12.5603L2.71897 10.1443C2.71359 10.1241 2.72143 10.1037 2.7389 10.0923L4.33356 9.05675C4.34599 9.04863 4.35338 9.03653 4.3549 9.02181C4.43783 8.19575 4.65584 7.39646 4.99145 6.65306C4.99755 6.63951 4.99722 6.62534 4.9905 6.61207L4.12608 4.91555C4.11662 4.89696 4.12003 4.87534 4.13476 4.86061L7.01036 1.98507C7.02509 1.97034 7.04676 1.96687 7.0653 1.97633L8.76025 2.83997C8.77346 2.84669 8.78763 2.84708 8.80113 2.84097C9.55153 2.50374 10.3525 2.28904 11.171 2.20599C11.1858 2.20448 11.1978 2.19714 11.2059 2.18465L12.242 0.589215C12.2534 0.571743 12.2739 0.563847 12.294 0.569279L14.3272 1.11405C14.3608 1.12306 14.3735 1.16372 14.3511 1.19032C14.0333 1.56725 13.8909 2.04673 13.953 2.54406L14.1803 4.36356C14.2059 4.56796 14.1013 4.65588 13.9791 4.77555C13.9654 4.78893 13.9462 4.79274 13.9284 4.78563C11.9914 4.0121 9.69556 4.4092 8.12722 5.97759Z" fill="#F6F7F6"/>
</svg>
