<svg width="28" height="28" viewBox="0 0 28 28" fill="none" xmlns="http://www.w3.org/2000/svg">
<path fill-rule="evenodd" clip-rule="evenodd" d="M14.4991 12.1795L16.2163 6.95634L10.9937 8.67353L13.296 9.71313C13.3687 9.74595 13.4272 9.80446 13.4601 9.8772L14.4991 12.1795ZM17.4304 19.0171C16.9704 19.5673 16.5122 20.1038 16.0703 20.6206C15.904 20.8152 15.74 21.0067 15.5797 21.1953L20.3726 20.0179L20.179 19.5055C20.0652 19.2042 19.794 19.0171 19.4719 19.0171H17.4304ZM6.2517 23.4862L12.9104 21.8505C12.5801 21.4567 12.2285 21.0455 11.8654 20.6206C11.4235 20.1038 10.9647 19.5673 10.5053 19.0171H8.46436C8.14225 19.0171 7.871 19.2042 7.75725 19.5055L6.2517 23.4862ZM12.3947 26.2288H5.99467C5.80982 26.2288 5.65615 26.1484 5.55115 25.9958C5.44615 25.8438 5.42482 25.672 5.49045 25.4987L5.97006 24.231L10.6852 23.0727L12.3947 26.2288ZM20.6061 20.6364L22.4447 25.4987C22.5103 25.672 22.489 25.8438 22.384 25.9958C22.279 26.1484 22.1253 26.2288 21.9405 26.2288H13.1412L11.3442 22.9114L13.3764 22.4121C13.4918 22.5532 13.6039 22.6921 13.7111 22.8266C13.7734 22.9054 13.868 22.9508 13.9681 22.9508C14.0682 22.9508 14.1628 22.9054 14.2251 22.8266C14.4231 22.5773 14.6358 22.317 14.8601 22.0479L20.6061 20.6364ZM13.9681 2.41782C17.7104 2.41782 20.7548 5.46228 20.7548 9.20454C20.7548 12.9468 17.7104 15.9913 13.9681 15.9913C10.2258 15.9913 7.18139 12.9468 7.18139 9.20454C7.18084 5.46228 10.2258 2.41782 13.9681 2.41782ZM15.5715 20.1945C14.9968 20.8666 14.4488 21.5076 13.9681 22.0993C13.4874 21.5076 12.9394 20.8666 12.3641 20.1945C9.50396 16.8504 5.9449 12.6887 5.9449 9.20509C5.9449 4.78087 9.54389 1.18188 13.9681 1.18188C18.3918 1.18188 21.9908 4.78087 21.9908 9.20509C21.9908 12.6881 18.4312 16.8499 15.5715 20.1945ZM17.0421 6.54454L14.8584 13.1863C14.8163 13.3149 14.6993 13.404 14.5642 13.4117C14.5582 13.4122 14.5527 13.4122 14.5467 13.4122C14.4182 13.4122 14.3006 13.3367 14.2476 13.2192L12.9115 10.2606L9.95295 8.92454C9.82936 8.86876 9.75334 8.74298 9.76045 8.6079C9.76756 8.47282 9.85725 8.35579 9.98576 8.31368L16.6276 6.13001C16.7451 6.09118 16.8742 6.12235 16.9622 6.20985C17.0503 6.29735 17.0809 6.42696 17.0421 6.54454ZM13.9681 15.3356C10.5879 15.3356 7.83764 12.5853 7.83764 9.20509C7.83764 5.82485 10.5879 3.07462 13.9681 3.07462C17.3483 3.07462 20.0986 5.82485 20.0986 9.20509C20.0986 12.5853 17.3483 15.3356 13.9681 15.3356Z" fill="#F6F7F6"/>
</svg>
