<svg width="28" height="28" viewBox="0 0 28 28" fill="none" xmlns="http://www.w3.org/2000/svg">
<path d="M14 13.2722C11.088 13.2722 8.79199 15.6242 8.79199 18.4802C8.79199 21.3362 11.144 23.6882 14 23.6882C16.912 23.6882 19.208 21.3362 19.208 18.4802C19.208 15.6242 16.912 13.2722 14 13.2722ZM14 20.7762C12.712 20.7762 11.704 19.7682 11.704 18.4802C11.704 17.1922 12.712 16.2402 14 16.2402C15.288 16.2402 16.296 17.2482 16.296 18.5362C16.296 19.8242 15.288 20.7762 14 20.7762Z" fill="#F6F7F6"/>
<path d="M25.7596 12.8241C25.1996 11.8721 24.1356 11.3681 23.0716 11.3681H17.4156C16.8556 11.0881 16.2396 10.8641 15.5676 10.7521V4.53612H16.6876V8.12012H17.1916C17.9756 8.12012 18.5916 7.50412 18.5916 6.72012V4.53612H18.9276C19.7676 4.53612 20.4956 3.86412 20.4956 2.96812V1.56812H7.61557V3.02412C7.61557 3.86412 8.28757 4.59211 9.18357 4.59211H9.51957V6.72012C9.51957 7.50412 10.1356 8.12012 10.9196 8.12012H11.4236V4.53612H12.5436V10.7521C11.8716 10.8641 11.2556 11.0881 10.6956 11.3681H4.92757C3.80757 11.3681 2.79957 11.9281 2.23957 12.8241C-0.00042969 16.4081 -0.00042969 20.6641 2.23957 24.1921C2.85557 25.1441 3.80757 25.6481 4.92757 25.6481H10.6396C11.6476 26.1521 12.8236 26.4321 13.9996 26.4321C15.2316 26.4321 16.3516 26.1521 17.3596 25.6481H23.0156C24.1356 25.6481 25.1436 25.0881 25.7036 24.1921C27.9996 20.6641 27.9996 16.4081 25.7596 12.8241ZM4.81557 23.1841C4.47957 23.1841 4.25557 22.9041 4.25557 22.6241C4.25557 22.2881 4.47957 22.0641 4.81557 22.0641C5.15157 22.0641 5.37557 22.2881 5.37557 22.6241C5.31957 22.9601 5.09557 23.1841 4.81557 23.1841ZM4.81557 14.9521C4.47957 14.9521 4.25557 14.7281 4.25557 14.3921C4.25557 14.1121 4.47957 13.8321 4.81557 13.8321C5.15157 13.8321 5.37557 14.1121 5.37557 14.3921C5.31957 14.7281 5.09557 14.9521 4.81557 14.9521ZM13.9996 25.3121C10.2476 25.3121 7.16757 22.2881 7.16757 18.4801C7.16757 15.9041 8.56757 13.6641 10.6956 12.4881C10.7516 12.4881 10.7516 12.4321 10.8076 12.4321C11.7596 11.9281 12.8236 11.6481 13.9996 11.6481C15.1196 11.6481 16.2396 11.9281 17.1916 12.4321C17.2476 12.4321 17.3036 12.4881 17.3036 12.4881C19.4316 13.7201 20.8316 15.9601 20.8316 18.4801C20.8316 22.2321 17.7516 25.3121 13.9996 25.3121ZM23.2396 23.1841C22.9036 23.1841 22.6796 22.9041 22.6796 22.6241C22.6796 22.2881 22.9036 22.0641 23.2396 22.0641C23.5196 22.0641 23.7996 22.2881 23.7996 22.6241C23.7996 22.9601 23.5196 23.1841 23.2396 23.1841ZM23.2396 14.9521C22.9036 14.9521 22.6796 14.7281 22.6796 14.3921C22.6796 14.1121 22.9036 13.8321 23.2396 13.8321C23.5196 13.8321 23.7996 14.1121 23.7996 14.3921C23.7996 14.7281 23.5196 14.9521 23.2396 14.9521Z" fill="#F6F7F6"/>
</svg>
